<svg width="32" height="18" viewBox="0 0 32 18" fill="none" xmlns="http://www.w3.org/2000/svg">
<path fill-rule="evenodd" clip-rule="evenodd" d="M32 2.90909C32 4.50909 30.6909 5.81818 29.0909 5.81818C28.8291 5.81818 28.5818 5.78909 28.3491 5.71636L23.1709 10.88C23.2436 11.1127 23.2727 11.3745 23.2727 11.6364C23.2727 13.2364 21.9636 14.5455 20.3636 14.5455C18.7636 14.5455 17.4545 13.2364 17.4545 11.6364C17.4545 11.3745 17.4836 11.1127 17.5564 10.88L13.8473 7.17091C13.6145 7.24364 13.3527 7.27273 13.0909 7.27273C12.8291 7.27273 12.5673 7.24364 12.3345 7.17091L5.71636 13.8036C5.78909 14.0364 5.81818 14.2836 5.81818 14.5455C5.81818 16.1455 4.50909 17.4545 2.90909 17.4545C1.30909 17.4545 0 16.1455 0 14.5455C0 12.9455 1.30909 11.6364 2.90909 11.6364C3.17091 11.6364 3.41818 11.6655 3.65091 11.7382L10.2836 5.12C10.2109 4.88727 10.1818 4.62545 10.1818 4.36364C10.1818 2.76364 11.4909 1.45455 13.0909 1.45455C14.6909 1.45455 16 2.76364 16 4.36364C16 4.62545 15.9709 4.88727 15.8982 5.12L19.6073 8.82909C19.84 8.75636 20.1018 8.72727 20.3636 8.72727C20.6255 8.72727 20.8873 8.75636 21.12 8.82909L26.2836 3.65091C26.2109 3.41818 26.1818 3.17091 26.1818 2.90909C26.1818 1.30909 27.4909 0 29.0909 0C30.6909 0 32 1.30909 32 2.90909Z" fill="#73AAFC"/>
</svg>


