<svg width="17" height="20" viewBox="0 0 17 20" fill="none" xmlns="http://www.w3.org/2000/svg">
<path fill-rule="evenodd" clip-rule="evenodd" d="M8.25003 12.35C5.00003 12.35 3.25003 9.1754 3.25003 5.625C3.25003 2.15 5.25003 0 8.25003 0C11.25 0 13.25 2.15 13.25 5.625C13.25 9.1754 11.5 12.35 8.25003 12.35ZM8.25003 10.35C9.98953 10.35 11.25 8.5013 11.25 5.625C11.25 3.24619 10.128 2 8.25003 2C6.37203 2 5.25003 3.24619 5.25003 5.625C5.25003 8.5013 6.51063 10.35 8.25003 10.35ZM1.19014 19.9982C1.74143 20.0313 2.21516 19.6112 2.24824 19.0599C2.36356 17.1378 4.29132 16 8.25383 16C12.2144 16 14.1368 17.1363 14.2535 19.0606C14.2869 19.6118 14.761 20.0316 15.3122 19.9982C15.8635 19.9647 16.2833 19.4907 16.2498 18.9394C16.0547 15.7224 13.1407 14 8.25383 14C3.36485 14 0.444817 15.7235 0.251827 18.9401C0.218747 19.4914 0.638847 19.9651 1.19014 19.9982Z" fill="#73AAFC"/>
</svg>
