<svg width="20" height="12" viewBox="0 0 20 12" fill="none" xmlns="http://www.w3.org/2000/svg">
<path fill-rule="evenodd" clip-rule="evenodd" d="M0 1C0 0.44772 0.44772 0 1 0H19C19.5523 0 20 0.44772 20 1C20 1.55228 19.5523 2 19 2H1C0.44772 2 0 1.55228 0 1ZM2 6C2 5.4477 2.44772 5 3 5H17C17.5523 5 18 5.4477 18 6C18 6.5523 17.5523 7 17 7H3C2.44772 7 2 6.5523 2 6ZM5 10C4.44772 10 4 10.4477 4 11C4 11.5523 4.44772 12 5 12H15C15.5523 12 16 11.5523 16 11C16 10.4477 15.5523 10 15 10H5Z" fill="#73AAFC"/>
</svg>
