<svg width="20" height="20" viewBox="0 0 20 20" fill="none" xmlns="http://www.w3.org/2000/svg">
<path fill-rule="evenodd" clip-rule="evenodd" d="M11.3361 12.2871C10.7174 11.9426 10.0189 11.3921 9.25553 10.6287C8.49273 9.86591 7.94263 9.16811 7.59873 8.55031L8.53383 7.74129C9.59063 6.82693 9.79363 5.26542 9.00583 4.11125L7.41743 1.78427C7.40433 1.76523 7.39773 1.7557 7.39103 1.74626C7.38433 1.73681 7.37753 1.72744 7.36403 1.70869C6.46603 0.483878 4.74524 0.218878 3.52037 1.11669C3.24144 1.32119 2.95574 1.53312 2.66311 1.75259C-1.09543 4.57149 -0.15393 9.66541 5.03245 14.8518C10.2191 20.0385 15.3148 20.9815 18.1336 17.2231C18.354 16.9292 18.5667 16.642 18.7717 16.3613C18.7846 16.3434 18.7911 16.3345 18.7974 16.3255C18.8038 16.3165 18.81 16.3074 18.8226 16.2893C19.6787 15.0348 19.3557 13.3238 18.1012 12.4676L15.7747 10.8801C14.6205 10.0925 13.0592 10.2956 12.1449 11.3523L11.3361 12.2871ZM16.5336 16.0231C14.8591 18.2558 11.3306 18.3216 6.44665 13.4376C1.56264 8.55361 1.63041 5.02711 3.8631 3.35259C4.15001 3.13741 4.42989 2.9298 4.70276 2.7298C5.0368 2.4849 5.50612 2.55717 5.75101 2.89121C5.75599 2.89799 5.76085 2.90487 5.7656 2.91182L7.35393 5.23879C7.56883 5.55357 7.51343 5.97944 7.22525 6.2288L5.99468 7.29347C5.49077 7.72946 5.33487 8.44561 5.61197 9.05161C6.03989 9.98751 6.78301 10.9846 7.84133 12.0429C8.90003 13.1016 9.89783 13.8453 10.8347 14.2738C11.4407 14.5509 12.157 14.3951 12.593 13.8911L13.6574 12.6609C13.9068 12.3727 14.3326 12.3173 14.6473 12.5321L16.9738 14.1196C17.316 14.3531 17.4041 14.8198 17.1706 15.162C17.166 15.1686 17.1614 15.1751 17.1567 15.1816C16.9567 15.4554 16.749 15.7359 16.5336 16.0231Z" fill="#73AAFC"/>
</svg>
