<svg width="16" height="16" viewBox="0 0 16 16" fill="none" xmlns="http://www.w3.org/2000/svg">
<g clip-path="url(#clip0)">
<path d="M6.30993 12C6.14424 12 6.00993 11.8657 6.00993 11.7V10.666C6.00993 10.5003 5.87561 10.366 5.70993 10.366H5.3C5.13431 10.366 5 10.2316 5 10.066V9.83759C5 9.6719 5.13431 9.53759 5.3 9.53759H5.70993C5.87561 9.53759 6.00993 9.40327 6.00993 9.23759V8.91844C6.00993 8.75276 5.87561 8.61844 5.70993 8.61844H5.3C5.13431 8.61844 5 8.48413 5 8.31844V8.09007C5 7.92439 5.13431 7.79007 5.3 7.79007H5.70993C5.87561 7.79007 6.00993 7.65576 6.00993 7.49007V4.3C6.00993 4.13431 6.14424 4 6.30993 4H8.66525C9.52766 4 10.1896 4.21182 10.6511 4.63546C11.1125 5.0591 11.3433 5.63026 11.3433 6.34894C11.3433 7.03735 11.1087 7.5896 10.6397 8.00567C10.1783 8.41418 9.54657 8.61844 8.74468 8.61844H7.50142C7.33573 8.61844 7.20142 8.75275 7.20142 8.91844V9.23759C7.20142 9.40327 7.33573 9.53759 7.50142 9.53759H8.8078C8.97349 9.53759 9.1078 9.6719 9.1078 9.83759V10.066C9.1078 10.2316 8.97349 10.366 8.8078 10.366H7.50142C7.33573 10.366 7.20142 10.5003 7.20142 10.666V11.7C7.20142 11.8657 7.0671 12 6.90142 12H6.30993ZM7.17872 7.49007C7.17872 7.65576 7.31304 7.79007 7.47872 7.79007H8.55177C9.08889 7.79007 9.4974 7.68038 9.7773 7.46099C10.0648 7.24161 10.2085 6.89362 10.2085 6.41702C10.2085 5.47139 9.65248 4.99858 8.54043 4.99858H7.47872C7.31304 4.99858 7.17872 5.1329 7.17872 5.29858V7.49007Z" fill="#73AAFC" stroke="#C1C5D6" stroke-width="0.1" stroke-linejoin="round"/>
<path d="M8 0C6.41775 0 4.87103 0.469192 3.55544 1.34824C2.23985 2.22729 1.21447 3.47672 0.608967 4.93853C0.00346631 6.40034 -0.15496 8.00887 0.153721 9.56072C0.462403 11.1126 1.22433 12.538 2.34315 13.6569C3.46197 14.7757 4.88743 15.5376 6.43928 15.8463C7.99113 16.155 9.59966 15.9965 11.0615 15.391C12.5233 14.7855 13.7727 13.7602 14.6518 12.4446C15.5308 11.129 16 9.58225 16 8C16 6.94942 15.7931 5.90914 15.391 4.93853C14.989 3.96793 14.3997 3.08601 13.6569 2.34315C12.914 1.60028 12.0321 1.011 11.0615 0.608964C10.0909 0.206926 9.05058 0 8 0ZM8 14.4C6.7342 14.4 5.49683 14.0246 4.44435 13.3214C3.39188 12.6182 2.57158 11.6186 2.08717 10.4492C1.60277 9.27973 1.47603 7.9929 1.72298 6.75142C1.96992 5.50994 2.57946 4.36957 3.47452 3.47452C4.36958 2.57946 5.50995 1.96992 6.75142 1.72297C7.9929 1.47603 9.27973 1.60277 10.4492 2.08717C11.6186 2.57157 12.6182 3.39188 13.3214 4.44435C14.0246 5.49682 14.4 6.7342 14.4 8C14.4 9.69738 13.7257 11.3252 12.5255 12.5255C11.3253 13.7257 9.69739 14.4 8 14.4Z" fill="#73AAFC"/>
</g>
<defs>
<clipPath id="clip0">
<rect width="16" height="16" fill="white"/>
</clipPath>
</defs>
</svg>
