<svg width="17" height="16" viewBox="0 0 17 16" fill="none" xmlns="http://www.w3.org/2000/svg">
<g clip-path="url(#clip0)">
<g clip-path="url(#clip1)">
<path fill-rule="evenodd" clip-rule="evenodd" d="M14.2713 0.902989L9.02999 7.89138L7.33951 5.8628C6.98595 5.43853 6.35538 5.3812 5.93111 5.73477C5.50683 6.08833 5.4495 6.71889 5.80307 7.14317L8.30307 10.1431C8.71628 10.639 9.48402 10.6193 9.87129 10.1029L15.8713 2.10299C16.2027 1.66116 16.1131 1.03436 15.6713 0.702989C15.2295 0.371618 14.6027 0.461161 14.2713 0.902989ZM14.5713 8.00299C14.019 8.00299 13.5713 8.4507 13.5713 9.00299V13.0029H3.57129V3.00299H7.57129C8.12357 3.00299 8.57129 2.55527 8.57129 2.00299C8.57129 1.4507 8.12357 1.00299 7.57129 1.00299H3.07129C2.24286 1.00299 1.57129 1.67456 1.57129 2.50299V13.5029C1.57129 14.3314 2.24286 15.0029 3.07129 15.0029H14.0713C14.8997 15.0029 15.5713 14.3314 15.5713 13.5029V9.00299C15.5713 8.4507 15.1236 8.00299 14.5713 8.00299Z" fill="#73AAFC" stroke="white" stroke-width="0.5"/>
</g>
</g>
<defs>
<clipPath id="clip0">
<rect width="16" height="16" fill="white" transform="translate(0.571289)"/>
</clipPath>
<clipPath id="clip1">
<rect width="16" height="16" fill="white" transform="translate(0.571289)"/>
</clipPath>
</defs>
</svg>
