<svg width="17" height="16" viewBox="0 0 17 16" fill="none" xmlns="http://www.w3.org/2000/svg">
<g clip-path="url(#clip0)">
<g clip-path="url(#clip1)">
<path d="M10.6477 12.2092C10.9267 12.4882 10.9267 12.9404 10.6477 13.2194C10.3688 13.4983 9.91652 13.4983 9.63759 13.2194C8.83395 12.4157 7.58673 12 5.85694 12C4.12715 12 2.87992 12.4157 2.0763 13.2194C1.79735 13.4983 1.34509 13.4983 1.06614 13.2194C0.787198 12.9404 0.787198 12.4882 1.06614 12.2092C2.16729 11.1081 3.7772 10.5714 5.85694 10.5714C7.93666 10.5714 9.54659 11.1081 10.6477 12.2092ZM5.85767 9.7143C3.97919 9.7143 2.64265 7.79124 2.64265 5.55033C2.64265 3.42857 3.78276 2 5.85767 2C7.93259 2 9.07123 3.42857 9.07123 5.55033C9.07123 7.79124 7.73616 9.7143 5.85767 9.7143ZM5.85767 8.28573C6.79088 8.28573 7.64266 7.14587 7.64266 5.55033C7.64266 4.11503 7.04261 3.42857 5.85767 3.42857C4.67218 3.42857 4.07123 4.1156 4.07123 5.55033C4.07123 7.14534 4.92394 8.28573 5.85767 8.28573Z" fill="#777A8F"/>
<path fill-rule="evenodd" clip-rule="evenodd" d="M12.8569 13C12.3046 13 11.8569 12.5523 11.8569 12V10H9.85693C9.30465 10 8.85693 9.55228 8.85693 9C8.85693 8.44772 9.30465 8 9.85693 8H11.8569V6C11.8569 5.44772 12.3046 5 12.8569 5C13.4092 5 13.8569 5.44772 13.8569 6V8H15.8569C16.4092 8 16.8569 8.44772 16.8569 9C16.8569 9.55228 16.4092 10 15.8569 10H13.8569V12C13.8569 12.5523 13.4092 13 12.8569 13Z" fill="#777A8F" stroke="white" stroke-width="0.5"/>
</g>
</g>
<defs>
<clipPath id="clip0">
<rect width="16" height="16" fill="white" transform="translate(0.856934)"/>
</clipPath>
<clipPath id="clip1">
<rect width="16" height="16" fill="white" transform="translate(0.856934)"/>
</clipPath>
</defs>
</svg>
