<svg width="17" height="16" viewBox="0 0 17 16" fill="none" xmlns="http://www.w3.org/2000/svg">
<g clip-path="url(#clip0)">
<path fill-rule="evenodd" clip-rule="evenodd" d="M2.47169 1.41772C1.96834 1.41772 1.5603 1.82576 1.5603 2.32911V13.5798L3.5907 11.5494C3.72364 11.4164 3.90394 11.3418 4.09194 11.3418H13.8134C14.3168 11.3418 14.7248 10.9337 14.7248 10.4304V2.32911C14.7248 1.82576 14.3168 1.41772 13.8134 1.41772H2.47169ZM0.142578 2.32911C0.142578 1.04278 1.18536 0 2.47169 0H13.8134C15.0998 0 16.1426 1.04278 16.1426 2.32911V10.4304C16.1426 11.7167 15.0998 12.7595 13.8134 12.7595H4.38556L1.35268 15.7924C1.14994 15.9951 0.845052 16.0557 0.580169 15.946C0.315286 15.8363 0.142578 15.5778 0.142578 15.2911V2.32911Z" fill="#73AAFC"/>
</g>
<defs>
<clipPath id="clip0">
<rect width="16" height="16" fill="white" transform="translate(0.142578)"/>
</clipPath>
</defs>
</svg>
