<svg width="17" height="16" viewBox="0 0 17 16" fill="none" xmlns="http://www.w3.org/2000/svg">
<g clip-path="url(#clip0)">
<path fill-rule="evenodd" clip-rule="evenodd" d="M5.0467 10.5307H3.2189C1.45701 10.5307 0.431641 9.59337 0.431641 7.87793C0.431641 7.34106 0.510866 6.99109 0.692108 6.53455L0.74545 6.40103C0.802496 6.25705 0.833888 6.16377 0.860497 6.05195C0.872604 6.00106 0.872074 5.91492 0.851512 5.64083C0.794877 4.88589 0.83572 4.43084 1.13327 3.83573C1.30477 3.49273 1.51421 3.20767 1.78155 2.92214C1.84218 2.85739 1.97491 2.72483 2.08426 2.61561L2.08429 2.61558C2.16206 2.5379 2.22801 2.47203 2.24777 2.45078C2.32294 2.36996 2.35319 2.32626 2.35995 2.308C2.51683 1.8844 2.61887 1.66236 2.85442 1.34263C3.42805 0.564003 4.32841 0.102929 5.5597 0.102929H8.74328C9.58301 0.102929 10.2635 0.248155 10.7967 0.518974C11.0717 0.202802 11.477 0.00292969 11.9289 0.00292969H14.9289C15.7573 0.00292969 16.4289 0.674501 16.4289 1.50293V7.00293C16.4289 7.83135 15.7573 8.50293 14.9289 8.50293H11.9289C11.8185 8.50293 11.711 8.49101 11.6074 8.46839C10.9367 9.11851 10.1751 10.635 9.9242 11.9379C9.86792 12.2301 9.82173 12.5211 9.77747 12.8493C9.75254 13.0342 9.68159 13.609 9.67641 13.651L9.67611 13.6534C9.47678 15.2122 9.13936 15.9029 7.9289 15.9029C6.42785 15.9029 4.90839 14.3548 4.90839 12.713C4.90839 12.0962 4.95466 11.3695 5.0467 10.5307ZM14.4289 2.00293V6.50293H12.4289V2.00293H14.4289ZM7.99361 12.6088C7.96612 12.8127 7.88959 13.4334 7.89065 13.4251C7.8501 13.7422 7.81496 13.9509 7.78134 14.0837C7.29901 13.964 6.70839 13.3059 6.70839 12.713C6.70839 11.9504 6.79083 10.9619 6.95706 9.75333C7.03143 9.21261 6.61126 8.7307 6.06546 8.7307H3.2189C2.41685 8.7307 2.23165 8.5614 2.23165 7.87793C2.23164 7.59214 2.2618 7.45891 2.3651 7.19872L2.41889 7.06406C2.50499 6.84676 2.56181 6.67794 2.61161 6.46861C2.68297 6.16873 2.68178 5.97688 2.64647 5.50617C2.61227 5.05021 2.6284 4.8704 2.74325 4.64071C2.82913 4.46894 2.9385 4.32008 3.09552 4.15238C3.12739 4.11834 3.21264 4.03311 3.30332 3.94247C3.40846 3.83735 3.5209 3.72495 3.56585 3.67662C3.78858 3.43713 3.9449 3.21127 4.0479 2.93315C4.14854 2.66141 4.19821 2.55333 4.3036 2.41028C4.54007 2.0893 4.90401 1.90293 5.5597 1.90293H8.74328C10.172 1.90293 10.5256 2.31848 10.5256 3.4294V7.02457C9.45191 7.96469 8.48673 9.88367 8.15668 11.5975C8.09341 11.926 8.04208 12.2494 7.99361 12.6088Z" fill="#FF4D4D" stroke="white" stroke-width="0.5"/>
</g>
<defs>
<clipPath id="clip0">
<rect width="16" height="16" fill="white" transform="translate(0.428711)"/>
</clipPath>
</defs>
</svg>
