<svg width="17" height="16" viewBox="0 0 17 16" fill="none" xmlns="http://www.w3.org/2000/svg">
<g clip-path="url(#clip0)">
<g clip-path="url(#clip1)">
<path fill-rule="evenodd" clip-rule="evenodd" d="M12.0966 5.47477H13.9244C15.6863 5.47477 16.7117 6.41209 16.7117 8.12754C16.7117 8.6644 16.6324 9.01437 16.4512 9.47091L16.3978 9.60443C16.3408 9.74841 16.3094 9.84169 16.2828 9.95352C16.2707 10.0044 16.2712 10.0906 16.2918 10.3646C16.3484 11.1196 16.3076 11.5746 16.01 12.1697C15.8385 12.5127 15.6291 12.7978 15.3617 13.0833C15.3011 13.1481 15.1684 13.2806 15.059 13.3899C14.9812 13.4676 14.9153 13.5334 14.8955 13.5547C14.8204 13.6355 14.7901 13.6792 14.7834 13.6975C14.6265 14.1211 14.5244 14.3431 14.2889 14.6628C13.7152 15.4415 12.8149 15.9025 11.5836 15.9025H8.39998C7.56025 15.9025 6.87979 15.7573 6.34657 15.4865C6.07156 15.8027 5.6663 16.0025 5.21436 16.0025H2.21436C1.38593 16.0025 0.714355 15.331 0.714355 14.5025V9.00254C0.714355 8.17411 1.38593 7.50254 2.21436 7.50254H5.21436C5.32472 7.50254 5.4323 7.51446 5.53587 7.53707C6.20653 6.88696 6.96815 5.37049 7.21906 4.06763C7.27534 3.77538 7.32153 3.4844 7.36579 3.15616C7.39072 2.9713 7.46167 2.39646 7.46685 2.35447L7.46715 2.35204C7.66648 0.79327 8.0039 0.102539 9.21436 0.102539C10.7155 0.102539 12.2349 1.65067 12.2349 3.29251C12.2349 3.90931 12.1886 4.63598 12.0966 5.47477ZM2.71436 14.0025V9.50254H4.71436V14.0025H2.71436ZM9.14965 3.39669C9.17714 3.1928 9.25366 2.57208 9.25261 2.58036C9.29316 2.26327 9.3283 2.05462 9.36192 1.92175C9.84425 2.04148 10.4349 2.69959 10.4349 3.29251C10.4349 4.05505 10.3524 5.04356 10.1862 6.25213C10.1118 6.79285 10.532 7.27477 11.0778 7.27477H13.9244C14.7265 7.27477 14.9117 7.44407 14.9117 8.12754C14.9117 8.41333 14.8815 8.54655 14.7782 8.80674L14.7244 8.9414C14.6383 9.1587 14.5815 9.32753 14.5317 9.53685C14.4603 9.83673 14.4615 10.0286 14.4968 10.4993C14.531 10.9553 14.5149 11.1351 14.4001 11.3648C14.3142 11.5365 14.2048 11.6854 14.0478 11.8531C14.0159 11.8871 13.9307 11.9724 13.84 12.063C13.7348 12.1681 13.6224 12.2805 13.5774 12.3289C13.3547 12.5683 13.1984 12.7942 13.0954 13.0723C12.9948 13.3441 12.9451 13.4521 12.8397 13.5952C12.6032 13.9162 12.2393 14.1025 11.5836 14.1025H8.39998C6.97126 14.1025 6.61765 13.687 6.61765 12.5761V8.98089C7.69135 8.04077 8.65653 6.12179 8.98658 4.40803C9.04984 4.07947 9.10118 3.75612 9.14965 3.39669Z" fill="#66D48B" stroke="white" stroke-width="0.5"/>
</g>
</g>
<defs>
<clipPath id="clip0">
<rect width="16" height="16" fill="white" transform="translate(0.714355)"/>
</clipPath>
<clipPath id="clip1">
<rect width="16" height="16" fill="white" transform="translate(0.714355)"/>
</clipPath>
</defs>
</svg>
