<svg width="184" height="24" viewBox="0 0 184 24" fill="none" xmlns="http://www.w3.org/2000/svg">
<path d="M0.0480001 23V0.439999H10.928C13.36 0.439999 15.2373 0.973332 16.56 2.04C17.904 3.08533 18.576 4.49333 18.576 6.264C18.576 7.43733 18.2773 8.46133 17.68 9.336C17.104 10.2107 16.2933 10.8613 15.248 11.288C16.5067 11.672 17.4773 12.3227 18.16 13.24C18.8427 14.136 19.184 15.256 19.184 16.6C19.184 18.584 18.4693 20.152 17.04 21.304C15.632 22.4347 13.7013 23 11.248 23H0.0480001ZM5.68 9.4H9.872C10.9387 9.4 11.7173 9.208 12.208 8.824C12.72 8.44 12.976 7.85333 12.976 7.064C12.976 6.27467 12.72 5.69867 12.208 5.336C11.7173 4.952 10.9387 4.76 9.872 4.76H5.68V9.4ZM5.68 18.68H10.448C11.536 18.68 12.3253 18.4773 12.816 18.072C13.328 17.6453 13.584 17.016 13.584 16.184C13.584 15.352 13.328 14.7333 12.816 14.328C12.3253 13.9227 11.536 13.72 10.448 13.72H5.68V18.68ZM33.3968 23.352C31.1141 23.352 29.1088 22.872 27.3808 21.912C25.6741 20.9307 24.3408 19.5653 23.3808 17.816C22.4208 16.0667 21.9408 14.0293 21.9408 11.704C21.9408 9.35733 22.4101 7.32 23.3488 5.592C24.3088 3.84267 25.6528 2.488 27.3808 1.528C29.1088 0.568 31.1141 0.0879993 33.3968 0.0879993C35.6794 0.0879993 37.6741 0.568 39.3808 1.528C41.1088 2.488 42.4528 3.84267 43.4128 5.592C44.3728 7.32 44.8528 9.35733 44.8528 11.704C44.8528 14.0293 44.3728 16.0667 43.4128 17.816C42.4528 19.5653 41.1088 20.9307 39.3808 21.912C37.6741 22.872 35.6794 23.352 33.3968 23.352ZM33.3968 18.424C35.0608 18.424 36.3621 17.8373 37.3008 16.664C38.2608 15.4693 38.7408 13.816 38.7408 11.704C38.7408 9.592 38.2714 7.94933 37.3328 6.776C36.3941 5.60267 35.0821 5.016 33.3968 5.016C31.7114 5.016 30.3994 5.60267 29.4608 6.776C28.5221 7.94933 28.0528 9.592 28.0528 11.704C28.0528 13.816 28.5221 15.4693 29.4608 16.664C30.3994 17.8373 31.7114 18.424 33.3968 18.424ZM59.2093 23.352C56.9266 23.352 54.9213 22.872 53.1933 21.912C51.4866 20.9307 50.1533 19.5653 49.1933 17.816C48.2333 16.0667 47.7533 14.0293 47.7533 11.704C47.7533 9.35733 48.2226 7.32 49.1613 5.592C50.1213 3.84267 51.4653 2.488 53.1933 1.528C54.9213 0.568 56.9266 0.0879993 59.2093 0.0879993C61.4919 0.0879993 63.4866 0.568 65.1933 1.528C66.9213 2.488 68.2653 3.84267 69.2253 5.592C70.1853 7.32 70.6653 9.35733 70.6653 11.704C70.6653 14.0293 70.1853 16.0667 69.2253 17.816C68.2653 19.5653 66.9213 20.9307 65.1933 21.912C63.4866 22.872 61.4919 23.352 59.2093 23.352ZM59.2093 18.424C60.8733 18.424 62.1746 17.8373 63.1133 16.664C64.0733 15.4693 64.5533 13.816 64.5533 11.704C64.5533 9.592 64.0839 7.94933 63.1453 6.776C62.2066 5.60267 60.8946 5.016 59.2093 5.016C57.5239 5.016 56.2119 5.60267 55.2733 6.776C54.3346 7.94933 53.8653 9.592 53.8653 11.704C53.8653 13.816 54.3346 15.4693 55.2733 16.664C56.2119 17.8373 57.5239 18.424 59.2093 18.424ZM82.5258 23.352C80.7551 23.352 79.0591 23.1387 77.4378 22.712C75.8164 22.264 74.4831 21.6773 73.4378 20.952L75.0698 16.376C76.0511 17.0373 77.2031 17.56 78.5258 17.944C79.8484 18.328 81.1818 18.52 82.5258 18.52C83.9338 18.52 84.9151 18.3387 85.4698 17.976C86.0458 17.592 86.3338 17.1227 86.3338 16.568C86.3338 16.0773 86.1311 15.6827 85.7258 15.384C85.3418 15.0853 84.6484 14.8293 83.6458 14.616L79.9018 13.816C75.8484 12.9413 73.8218 10.8187 73.8218 7.448C73.8218 5.976 74.2164 4.68533 75.0058 3.576C75.8164 2.46667 76.9364 1.61333 78.3658 1.016C79.7951 0.397333 81.4591 0.0879993 83.3578 0.0879993C84.9151 0.0879993 86.3871 0.311999 87.7738 0.759998C89.1818 1.18667 90.3231 1.77333 91.1978 2.52L89.5658 6.808C88.7551 6.21067 87.8164 5.752 86.7498 5.432C85.6831 5.09067 84.5311 4.92 83.2938 4.92C82.0991 4.92 81.1817 5.13333 80.5417 5.56C79.9018 5.96533 79.5818 6.49867 79.5818 7.16C79.5818 7.62933 79.7738 8.01333 80.1578 8.312C80.5418 8.61067 81.2244 8.86667 82.2058 9.08L85.9178 9.88C90.0351 10.7547 92.0938 12.824 92.0938 16.088C92.0938 17.56 91.6991 18.84 90.9097 19.928C90.1204 21.016 89.0111 21.8587 87.5818 22.456C86.1524 23.0533 84.4671 23.352 82.5258 23.352ZM99.8288 23V5.24H92.6608V0.439999H112.885V5.24H105.717V23H99.8288Z" fill="#73AAFC"/>
<path d="M126.503 23.352C124.007 23.352 121.863 22.872 120.071 21.912C118.279 20.952 116.903 19.5973 115.943 17.848C115.004 16.0987 114.535 14.0507 114.535 11.704C114.535 9.35733 115.004 7.32 115.943 5.592C116.903 3.84267 118.279 2.488 120.071 1.528C121.863 0.568 124.007 0.0879993 126.503 0.0879993C127.996 0.0879993 129.436 0.322666 130.823 0.792C132.209 1.24 133.329 1.83733 134.183 2.584L132.423 7.224C131.484 6.54133 130.545 6.04 129.607 5.72C128.668 5.37867 127.708 5.208 126.727 5.208C124.743 5.208 123.249 5.77333 122.247 6.904C121.244 8.01333 120.743 9.61333 120.743 11.704C120.743 13.816 121.244 15.4373 122.247 16.568C123.249 17.6773 124.743 18.232 126.727 18.232C127.708 18.232 128.668 18.072 129.607 17.752C130.545 17.4107 131.484 16.8987 132.423 16.216L134.183 20.856C133.329 21.6027 132.209 22.2107 130.823 22.68C129.436 23.128 127.996 23.352 126.503 23.352ZM137.079 23V0.439999H147.927C150.487 0.439999 152.461 1.06933 153.847 2.328C155.255 3.56533 155.959 5.29333 155.959 7.512C155.959 9.19733 155.533 10.616 154.679 11.768C153.847 12.8987 152.631 13.688 151.031 14.136C152.226 14.456 153.186 15.2773 153.911 16.6L157.431 23H150.967L147.063 15.832C146.807 15.384 146.477 15.064 146.071 14.872C145.687 14.68 145.239 14.584 144.727 14.584H142.967V23H137.079ZM142.967 10.424H146.871C149.197 10.424 150.359 9.50667 150.359 7.672C150.359 5.85867 149.197 4.952 146.871 4.952H142.967V10.424ZM159.737 23V0.439999H164.633L171.833 13.368L179.033 0.439999H183.801V23H178.489V10.744L173.337 19.672H170.137L165.049 10.872V23H159.737Z" fill="#333342"/>
</svg>
