<svg width="31" height="31" viewBox="0 0 31 31" fill="none" xmlns="http://www.w3.org/2000/svg">
<path d="M24.0585 14.2117H6.55853C5.17782 14.2117 4.05853 15.331 4.05853 16.7117V25.4617C4.05853 26.8424 5.17782 27.9617 6.55853 27.9617H24.0585C25.4392 27.9617 26.5585 26.8424 26.5585 25.4617V16.7117C26.5585 15.331 25.4392 14.2117 24.0585 14.2117Z" stroke="#C1C5D6" stroke-width="2" stroke-linecap="round" stroke-linejoin="round"/>
<path d="M9.05853 14.2117V9.21167C9.05853 7.55407 9.71701 5.96435 10.8891 4.79225C12.0612 3.62015 13.6509 2.96167 15.3085 2.96167C16.9661 2.96167 18.5558 3.62015 19.728 4.79225C20.9001 5.96435 21.5585 7.55407 21.5585 9.21167V14.2117" stroke="#C1C5D6" stroke-width="2" stroke-linecap="round" stroke-linejoin="round"/>
</svg>
