<svg width="18" height="18" viewBox="0 0 18 18" fill="none" xmlns="http://www.w3.org/2000/svg">
<path d="M15.7071 15.2929C16.0976 15.6834 16.0976 16.3166 15.7071 16.7071C15.3166 17.0976 14.6834 17.0976 14.2929 16.7071C13.1678 15.582 11.4217 15 9 15C6.5783 15 4.83217 15.582 3.70711 16.7071C3.31658 17.0976 2.68342 17.0976 2.29289 16.7071C1.90237 16.3166 1.90237 15.6834 2.29289 15.2929C3.8345 13.7513 6.08837 13 9 13C11.9116 13 14.1655 13.7513 15.7071 15.2929ZM9.00102 11.8C6.37115 11.8 4.5 9.10772 4.5 5.97045C4.5 3 6.09615 1 9.00102 1C11.9059 1 13.5 3 13.5 5.97045C13.5 9.10772 11.6309 11.8 9.00102 11.8ZM9.00102 9.8C10.3075 9.8 11.5 8.2042 11.5 5.97045C11.5 3.96103 10.6599 3 9.00102 3C7.34134 3 6.5 3.96184 6.5 5.97045C6.5 8.20347 7.6938 9.8 9.00102 9.8Z" fill="#C1C5D6"/>
</svg>
