<svg width="18" height="18" viewBox="0 0 18 18" fill="none" xmlns="http://www.w3.org/2000/svg">
<path d="M3.7028 4.64658C4.70436 5.19314 5.39472 5.59507 5.77389 5.85235L9 8.0415L12.2287 5.85059C12.6071 5.59521 13.2975 5.19374 14.2998 4.64617L13.5117 4.76743C12.5054 4.92225 11.4887 5 10.4705 5H7.52946C6.51131 5 5.49464 4.92225 4.48832 4.76743L3.7028 4.64658ZM15.1483 5.71985C14.5535 6.50118 14.0057 7.0618 13.5048 7.40168L10.123 9.69645C9.44501 10.1565 8.55499 10.1565 7.877 9.69645L4.49722 7.40304C3.99681 7.06347 3.44825 6.50191 2.85153 5.71836L2.93092 6.67098C2.97695 7.22342 3 7.77753 3 8.33189V13H15V8.33189C15 7.77753 15.023 7.22342 15.0691 6.67098L15.1483 5.71985ZM2.5 3H15.5C16.3284 3 17 3.67157 17 4.5V13.5C17 14.3285 16.3284 15 15.5 15H2.5C1.67157 15 1 14.3285 1 13.5V4.5C1 3.67157 1.67157 3 2.5 3Z" fill="#C1C5D6"/>
</svg>
