<svg width="20" height="20" viewBox="0 0 20 20" fill="none" xmlns="http://www.w3.org/2000/svg">
<path fill-rule="evenodd" clip-rule="evenodd" d="M11.4963 12.2417C10.8776 11.8972 10.1791 11.3467 9.41569 10.5833C8.65289 9.8205 8.10279 9.1227 7.75889 8.5049L8.69399 7.69588C9.75079 6.78152 9.95379 5.22001 9.16599 4.06584L7.57759 1.73886C7.56449 1.71982 7.55789 1.71029 7.55119 1.70085C7.54449 1.6914 7.53769 1.68203 7.52419 1.66328C6.62619 0.438468 4.9054 0.173468 3.68053 1.07128C3.4016 1.27578 3.1159 1.48771 2.82327 1.70718C-0.935274 4.52608 0.00622661 9.62 5.19261 14.8064C10.3793 19.9931 15.475 20.9361 18.2938 17.1777C18.5142 16.8838 18.7269 16.5966 18.9319 16.3159C18.9448 16.298 18.9513 16.2891 18.9576 16.2801C18.964 16.2711 18.9702 16.262 18.9828 16.2439C19.8389 14.9894 19.5159 13.2784 18.2614 12.4222L15.9349 10.8347C14.7807 10.0471 13.2194 10.2502 12.3051 11.3069L11.4963 12.2417ZM16.6938 15.9777C15.0193 18.2104 11.4908 18.2762 6.60681 13.3922C1.7228 8.5082 1.79057 4.9817 4.02326 3.30718C4.31017 3.092 4.59005 2.88439 4.86292 2.68439C5.19696 2.43949 5.66628 2.51176 5.91117 2.8458C5.91615 2.85258 5.92101 2.85946 5.92576 2.86641L7.51409 5.19338C7.72899 5.50816 7.67359 5.93403 7.38541 6.18339L6.15484 7.24806C5.65093 7.68405 5.49503 8.4002 5.77213 9.0062C6.20005 9.9421 6.94317 10.9392 8.00149 11.9975C9.06019 13.0562 10.058 13.7999 10.9949 14.2284C11.6009 14.5055 12.3172 14.3497 12.7532 13.8457L13.8176 12.6155C14.067 12.3273 14.4928 12.2719 14.8075 12.4867L17.134 14.0742C17.4762 14.3077 17.5643 14.7744 17.3308 15.1166C17.3262 15.1232 17.3216 15.1297 17.3169 15.1362C17.1169 15.41 16.9092 15.6905 16.6938 15.9777Z" fill="#C1C5D6"/>
</svg>
