<svg width="18" height="18" viewBox="0 0 18 18" fill="none" xmlns="http://www.w3.org/2000/svg">
<path fill-rule="evenodd" clip-rule="evenodd" d="M2.79289 2.79289C2.40237 3.18341 2.40237 3.81658 2.79289 4.2071L7.58579 9L2.79289 13.7928C2.40237 14.1834 2.40237 14.8165 2.79289 15.2071C3.18342 15.5976 3.81658 15.5976 4.20711 15.2071L9 10.4142L13.7929 15.2071C14.1834 15.5976 14.8166 15.5976 15.2071 15.2071C15.5976 14.8165 15.5976 14.1834 15.2071 13.7928L10.4142 9L15.2071 4.2071C15.5976 3.81658 15.5976 3.18341 15.2071 2.79289C14.8166 2.40237 14.1834 2.40237 13.7929 2.79289L9 7.58578L4.20711 2.79289C3.81658 2.40237 3.18342 2.40237 2.79289 2.79289Z" fill="#C1C5D6"/>
</svg>
