<svg width="18" height="18" viewBox="0 0 18 18" fill="none" xmlns="http://www.w3.org/2000/svg">
<g opacity="0.65">
<path fill-rule="evenodd" clip-rule="evenodd" d="M5 4C5 2.34314 6.34315 1 8 1H10C11.6569 1 13 2.34314 13 4H15C15.5523 4 16 4.44771 16 5C16 5.55228 15.5523 6 15 6H14.3462L13.6065 15.6151C13.5464 16.3966 12.8948 17 12.111 17H5.88905C5.10524 17 4.45358 16.3966 4.39347 15.6151L3.65385 6H3C2.44772 6 2 5.55228 2 5C2 4.44771 2.44772 4 3 4H5ZM12.3402 6H5.65975L6.35206 15H11.6479L12.3402 6ZM8 3C7.44772 3 7 3.44771 7 4H11C11 3.44771 10.5523 3 10 3H8Z" fill="#777A8F"/>
</g>
</svg>
