<svg width="42" height="42" viewBox="0 0 42 42" fill="none" xmlns="http://www.w3.org/2000/svg">
<path d="M20.0404 11C22.4197 11 24.3616 12.8739 24.4706 15.2262L24.4754 15.435V16.368C24.4754 16.7822 24.1397 17.118 23.7254 17.118C23.3458 17.118 23.032 16.8358 22.9823 16.4698L22.9754 16.368V15.435C22.9754 13.8721 21.7534 12.5943 20.2129 12.505L20.0404 12.5H15.1654C13.6034 12.5 12.3257 13.7221 12.2364 15.2626L12.2314 15.435V26.565C12.2314 28.1278 13.4533 29.4057 14.9931 29.495L15.1654 29.5H20.0504C21.6078 29.5 22.8815 28.2824 22.9705 26.7478L22.9754 26.576V25.633C22.9754 25.2188 23.3112 24.883 23.7254 24.883C24.1051 24.883 24.4189 25.1652 24.4686 25.5312L24.4754 25.633V26.576C24.4754 28.9472 22.6086 30.8831 20.2648 30.9949L20.0504 31H15.1654C12.787 31 10.8453 29.1259 10.7363 26.7738L10.7314 26.565V15.435C10.7314 13.0559 12.6052 11.1139 14.9568 11.0048L15.1654 11H20.0404ZM28.0355 17.4809L28.1198 17.5533L31.0478 20.4683C31.0742 20.4945 31.0973 20.5211 31.1185 20.5492L31.0478 20.4683C31.0783 20.4987 31.1057 20.5311 31.1299 20.565C31.147 20.5888 31.1628 20.6139 31.1771 20.6399C31.1797 20.645 31.1823 20.65 31.1849 20.655C31.1975 20.6789 31.2088 20.7038 31.2187 20.7294C31.2227 20.7405 31.2268 20.7519 31.2305 20.7632C31.2378 20.7843 31.244 20.8059 31.2491 20.8279C31.2516 20.8397 31.254 20.8514 31.2562 20.8631C31.2603 20.8835 31.2633 20.9046 31.2654 20.926C31.2665 20.9408 31.2675 20.9555 31.2681 20.9703C31.2688 20.9801 31.269 20.99 31.269 20.9999L31.2681 21.0282C31.2675 21.0436 31.2665 21.059 31.265 21.0743L31.269 20.9999C31.269 21.0467 31.2647 21.0926 31.2564 21.1371C31.254 21.1482 31.2516 21.1599 31.2488 21.1715C31.2438 21.1947 31.2374 21.2172 31.23 21.2392C31.2262 21.2494 31.2224 21.2598 31.2185 21.27C31.2092 21.2949 31.1984 21.319 31.1864 21.3424C31.1834 21.3477 31.1802 21.3536 31.177 21.3595C31.1426 21.4228 31.0995 21.4801 31.0493 21.5302L31.0479 21.5312L28.1199 24.4472C27.8264 24.7395 27.3515 24.7385 27.0592 24.445C26.7935 24.1782 26.7702 23.7615 26.9886 23.4684L27.0614 23.3844L28.7004 21.749L18.4779 21.7499C18.0637 21.7499 17.7279 21.4141 17.7279 20.9999C17.7279 20.6202 18.0101 20.3064 18.3762 20.2567L18.4779 20.2499L28.7024 20.249L27.0615 18.6163C26.7946 18.3506 26.7695 17.934 26.9867 17.6399L27.0591 17.5557C27.3248 17.2888 27.7414 17.2637 28.0355 17.4809Z" fill="#777A8F"/>
</svg>
