<svg width="17" height="16" viewBox="0 0 17 16" fill="none" xmlns="http://www.w3.org/2000/svg">
<g clip-path="url(#clip0)">
<path d="M6.50042 12.0001L2.60042 7.70007C2.39784 7.56405 2.15252 7.50679 1.91066 7.53907C1.6688 7.57135 1.44709 7.69096 1.28728 7.87535C1.12747 8.05974 1.0406 8.2962 1.04302 8.54019C1.04544 8.78419 1.13698 9.01888 1.30042 9.20007L5.80042 14.2001C5.89426 14.3065 6.00967 14.3917 6.13898 14.4501C6.26829 14.5084 6.40854 14.5386 6.55042 14.5386C6.69229 14.5386 6.83254 14.5084 6.96185 14.4501C7.09116 14.3917 7.20657 14.3065 7.30042 14.2001L15.8004 3.20007C15.9728 2.98789 16.0539 2.71593 16.0257 2.444C15.9976 2.17207 15.8626 1.92246 15.6504 1.75007C15.4382 1.57768 15.1663 1.49663 14.8944 1.52476C14.6224 1.55289 14.3728 1.68789 14.2004 1.90007L6.50042 11.9001V12.0001Z" fill="#66D48B"/>
</g>
<defs>
<clipPath id="clip0">
<rect width="16" height="16" fill="white" transform="translate(0.5)"/>
</clipPath>
</defs>
</svg>
