<svg width="25" height="24" viewBox="0 0 25 24" fill="none" xmlns="http://www.w3.org/2000/svg">
<g clip-path="url(#clip0)">
<path d="M17.117 14.4957C17.5075 14.1052 18.1407 14.1052 18.5312 14.4957C18.9217 14.8862 18.9217 15.5194 18.5312 15.9099L15.3492 19.0919C12.6155 21.8256 8.18334 21.8256 5.44967 19.0919C2.716 16.3582 2.716 11.9261 5.44967 9.19237L11.1066 3.53551C13.0592 1.58289 16.225 1.58289 18.1776 3.53551C20.1302 5.48814 20.1302 8.65396 18.1776 10.6066L12.5208 16.2635C11.3492 17.435 9.44967 17.435 8.2781 16.2635C7.10653 15.0919 7.10653 13.1924 8.2781 12.0208L12.8743 7.4246C13.2648 7.03408 13.898 7.03408 14.2885 7.4246C14.6791 7.81513 14.6791 8.44829 14.2885 8.83881L9.69231 13.435C9.30179 13.8256 9.30179 14.4587 9.69231 14.8492C10.0828 15.2398 10.716 15.2398 11.1066 14.8492L16.7634 9.19237C17.935 8.0208 17.935 6.1213 16.7634 4.94973C15.5918 3.77815 13.6923 3.77815 12.5208 4.94973L6.86389 10.6066C4.91126 12.5592 4.91126 15.725 6.86389 17.6777C8.81651 19.6303 11.9824 19.6303 13.935 17.6777L17.117 14.4957Z" fill="#C1C5D6"/>
</g>
<defs>
<clipPath id="clip0">
<rect width="24" height="24" fill="white" transform="translate(0.5)"/>
</clipPath>
</defs>
</svg>
