<svg width="20" height="20" viewBox="0 0 20 20" fill="none" xmlns="http://www.w3.org/2000/svg">
<g clip-path="url(#clip0_1417_941)">
<path fill-rule="evenodd" clip-rule="evenodd" d="M5.34237 2.98451C5.76421 2.26136 5.97513 1.89979 6.26893 1.63691C6.5289 1.4043 6.83467 1.22868 7.16658 1.12132C7.54169 1 7.96028 1 8.7975 1H11.2025C12.0397 1 12.4583 1 12.8334 1.12132C13.1653 1.22868 13.4711 1.4043 13.7311 1.63691C14.0249 1.89979 14.2358 2.26136 14.6576 2.98452L15.25 4H16C17.4001 4 18.1002 4 18.635 4.27248C19.1054 4.51217 19.4878 4.89462 19.7275 5.36502C20 5.8998 20 6.59987 20 8V14C20 15.4001 20 16.1002 19.7275 16.635C19.4878 17.1054 19.1054 17.4878 18.635 17.7275C18.1002 18 17.4001 18 16 18H4C2.59987 18 1.8998 18 1.36502 17.7275C0.89462 17.4878 0.51217 17.1054 0.27248 16.635C0 16.1002 0 15.4001 0 14V8C0 6.59987 0 5.8998 0.27248 5.36502C0.51217 4.89462 0.89462 4.51217 1.36502 4.27248C1.8998 4 2.59987 4 4 4H4.75L5.34237 2.98451ZM10 15.05C12.6234 15.05 14.75 12.9234 14.75 10.3C14.75 7.67665 12.6234 5.55 10 5.55C7.37665 5.55 5.25 7.67665 5.25 10.3C5.25 12.9234 7.37665 15.05 10 15.05ZM12.7 10.3C12.7 11.7912 11.4912 13 10 13C8.5088 13 7.3 11.7912 7.3 10.3C7.3 8.8088 8.5088 7.6 10 7.6C11.4912 7.6 12.7 8.8088 12.7 10.3Z" fill="white"/>
</g>
<defs>
<clipPath id="clip0_1417_941">
<rect width="18.5714" height="18.5714" fill="white" transform="translate(0.713867 0.713867)"/>
</clipPath>
</defs>
</svg>
