<svg width="19" height="18" viewBox="0 0 19 18" fill="none" xmlns="http://www.w3.org/2000/svg">
<g opacity="0.65">
<path d="M13.8 3.79085V3.46748L12.6503 3.78179C12.1125 3.9288 11.5575 4.00329 11 4.00329C10.4 4.00329 10 3.55558 10 3.0022C10 2.44992 10.4477 2.0022 11 2.0022H15.5C16.0523 2.0022 16.5 2.44992 16.5 3.0022V7.50671C16.5 8.059 16.0523 8.50671 15.5 8.50671C14.9477 8.50671 14.5 8.10397 14.5 7.50671C14.5 6.94739 14.5747 6.39057 14.722 5.85101L15.0353 4.70397H14.7144L13.6366 6.14086C13.3524 6.51984 13.0415 6.87814 12.7065 7.21306L11.7042 8.21521C11.3136 8.60566 10.6805 8.60554 10.29 8.21494C9.89955 7.82434 9.89968 7.19117 10.2903 6.80072L11.2939 5.79727C11.6265 5.4648 11.9821 5.1562 12.3581 4.87378L13.8 3.79085ZM5.2 14.2093V14.5327L6.34973 14.2184C6.8875 14.0714 7.4425 13.9969 8 13.9969C8.6 13.9969 9 14.4446 9 14.998C9 15.5503 8.55228 15.998 8 15.998H3.5C2.94772 15.998 2.5 15.5503 2.5 14.998V10.4935C2.5 9.94117 2.94772 9.49346 3.5 9.49346C4.05228 9.49346 4.5 9.8962 4.5 10.4935C4.5 11.0528 4.42533 11.6096 4.27795 12.1492L3.96466 13.2962H4.28564L5.36338 11.8593C5.64763 11.4803 5.95846 11.122 6.2935 10.7871L7.29579 9.78495C7.68639 9.39451 8.31955 9.39463 8.71 9.78523C9.10045 10.1758 9.10032 10.809 8.70972 11.1994L7.70614 12.2029C7.37354 12.5354 7.0179 12.844 6.64187 13.1264L5.2 14.2093Z" fill="#777A8F"/>
</g>
</svg>
