<svg width="17" height="16" viewBox="0 0 17 16" fill="none" xmlns="http://www.w3.org/2000/svg">
<g clip-path="url(#clip0)">
<path d="M10.3863 4.69746L4.20031 10.89C4.05348 11.0369 3.93875 11.2127 3.8634 11.4062L2.32781 14.1827L5.09791 12.6415C5.29167 12.5661 5.46763 12.4512 5.61462 12.3041L11.8007 6.11977C11.6071 5.84191 11.3877 5.57971 11.1437 5.33576C10.9076 5.09962 10.6544 4.88651 10.3863 4.69746ZM11.8152 3.26715C12.0748 3.46813 12.3229 3.68649 12.5579 3.92155C12.8005 4.16412 13.0253 4.42054 13.2316 4.68928L14.3408 3.58042C14.6035 3.31768 14.5951 3.13473 13.9808 2.52042C13.3664 1.9061 13.1833 1.89783 12.9208 2.16042L11.8152 3.26715ZM15.4008 1.10042C16.7894 2.48906 16.8013 3.9399 15.7508 4.99042L7.02914 13.718C6.68616 14.0612 6.27559 14.3292 5.82349 14.5052L2.21163 15.9114C1.91997 16.0249 1.59632 16.0249 1.30466 15.9114C0.661339 15.6609 0.342855 14.9364 0.593309 14.2931L1.99966 10.6807C2.17548 10.229 2.44317 9.81888 2.78579 9.47612L11.5108 0.750411C12.5614 -0.300264 14.0121 -0.288228 15.4008 1.10042Z" fill="#C1C5D6"/>
</g>
<defs>
<clipPath id="clip0">
<rect width="16" height="16" fill="white" transform="translate(0.5)"/>
</clipPath>
</defs>
</svg>
