<svg width="18" height="18" viewBox="0 0 18 18" fill="none" xmlns="http://www.w3.org/2000/svg">
<g opacity="0.65">
<path fill-rule="evenodd" clip-rule="evenodd" d="M9 0.999924C8.44772 0.999924 8 1.44764 8 1.99993V7.99993H2C1.44771 7.99993 1 8.44764 1 8.99993C1 9.55221 1.44771 9.99993 2 9.99993H8V15.9999C8 16.5522 8.44772 16.9999 9 16.9999C9.55229 16.9999 10 16.5522 10 15.9999V9.99993H16C16.5523 9.99993 17 9.55221 17 8.99993C17 8.44764 16.5523 7.99993 16 7.99993H10V1.99993C10 1.44764 9.55229 0.999924 9 0.999924Z" fill="#777A8F"/>
</g>
</svg>
