<svg width="18" height="19" viewBox="0 0 18 19" fill="none" xmlns="http://www.w3.org/2000/svg">
<path fill-rule="evenodd" clip-rule="evenodd" d="M13.8 2.5C14.3768 2.5 14.7484 2.5008 15.0301 2.5241C15.3008 2.54649 15.3948 2.58425 15.436 2.60583L15.4437 2.60986L15.4514 2.61375C15.6398 2.70827 15.7934 2.85986 15.8905 3.04685C15.9164 3.098 15.9538 3.19982 15.9759 3.46837C15.9992 3.75154 16 4.12339 16 4.7V14.3C16 14.8768 15.9992 15.2484 15.9759 15.5301C15.9535 15.8008 15.9158 15.8948 15.8942 15.936L15.8901 15.9437L15.8863 15.9514C15.7917 16.1398 15.6402 16.2934 15.4532 16.3904C15.402 16.4164 15.3002 16.4538 15.0316 16.4759C14.7485 16.4992 14.3766 16.5 13.8 16.5H4.2C3.62322 16.5 3.25163 16.4992 2.96993 16.4759C2.69925 16.4535 2.60522 16.4158 2.56401 16.3942L2.55632 16.3901L2.54857 16.3863C2.36023 16.2917 2.20659 16.1401 2.10954 15.9531C2.08362 15.902 2.04625 15.8001 2.02413 15.5316C2.00079 15.2485 2 14.8766 2 14.3V4.7C2 4.12322 2.0008 3.75163 2.0241 3.46993C2.04649 3.19925 2.08425 3.10522 2.10583 3.06401L2.10986 3.05632L2.11375 3.04857C2.20828 2.86023 2.35988 2.70658 2.54689 2.60953C2.59805 2.58362 2.69989 2.54625 2.96837 2.52413C3.25154 2.50079 3.62339 2.5 4.2 2.5H13.8ZM15.1949 0.530905C15.5865 0.563289 15.9796 0.634743 16.356 0.829997C16.9195 1.11477 17.3789 1.57011 17.6686 2.13125L17.6703 2.13452C17.8643 2.51383 17.9365 2.9076 17.9691 3.30413C18 3.67929 18 4.1343 18 4.6612V4.7V14.3V14.3391V14.3391C18 14.8657 18 15.3209 17.9691 15.6949C17.9367 16.0865 17.8653 16.4797 17.67 16.8561C17.3852 17.4195 16.9299 17.8789 16.3688 18.1686L16.3655 18.1703C15.9862 18.3643 15.5924 18.4365 15.1959 18.4691C14.8207 18.5 14.3657 18.5 13.8387 18.5H13.8H4.2H4.16089H4.16086C3.63426 18.5 3.17914 18.5 2.80508 18.4691C2.41351 18.4367 2.02031 18.3653 1.64393 18.17C1.08046 17.8852 0.621131 17.4299 0.331437 16.8688L0.329754 16.8655C0.135693 16.4862 0.0635531 16.0924 0.0308801 15.6959C-3.13745e-05 15.3207 -1.64478e-05 14.8657 8.38456e-07 14.3388V14.3388L2.7458e-06 14.3V4.7L8.38456e-07 4.66092V4.66088C-1.68055e-05 4.13427 -3.20521e-05 3.67914 0.0309054 3.30508C0.0632887 2.91353 0.134742 2.52037 0.329992 2.14401C0.614767 1.58051 1.07011 1.12114 1.63125 0.831437L1.63452 0.829748L1.63453 0.829754C2.01383 0.635693 2.4076 0.563553 2.80413 0.53088C3.17929 0.499969 3.63431 0.499984 4.1612 0.500001H4.16125L4.2 0.500003H13.8L13.8391 0.500001H13.8391C14.3657 0.499983 14.8209 0.499968 15.1949 0.530905ZM4.2929 4.7929C4.10536 4.98043 4 5.23479 4 5.5C4 5.76522 4.10536 6.01957 4.2929 6.20711C4.48043 6.39465 4.73479 6.5 5 6.5H13C13.2652 6.5 13.5196 6.39465 13.7071 6.20711C13.8946 6.01957 14 5.76522 14 5.5C14 5.23479 13.8946 4.98043 13.7071 4.7929C13.5196 4.60536 13.2652 4.5 13 4.5H5C4.73479 4.5 4.48043 4.60536 4.2929 4.7929ZM4.2929 8.7929C4.10536 8.98043 4 9.23479 4 9.5C4 9.76522 4.10536 10.0196 4.2929 10.2071C4.48043 10.3946 4.73479 10.5 5 10.5H13C13.2652 10.5 13.5196 10.3946 13.7071 10.2071C13.8946 10.0196 14 9.76522 14 9.5C14 9.23479 13.8946 8.98043 13.7071 8.7929C13.5196 8.60536 13.2652 8.5 13 8.5H5C4.73479 8.5 4.48043 8.60536 4.2929 8.7929ZM4.2929 12.7929C4.48043 12.6054 4.73479 12.5 5 12.5H8C8.26522 12.5 8.51957 12.6054 8.70711 12.7929C8.89465 12.9804 9 13.2348 9 13.5C9 13.7652 8.89465 14.0196 8.70711 14.2071C8.51957 14.3946 8.26522 14.5 8 14.5H5C4.73479 14.5 4.48043 14.3946 4.2929 14.2071C4.10536 14.0196 4 13.7652 4 13.5C4 13.2348 4.10536 12.9804 4.2929 12.7929Z" fill="#73AAFC"/>
</svg>
