<svg width="24" height="25" viewBox="0 0 24 25" fill="none" xmlns="http://www.w3.org/2000/svg">
<path fill-rule="evenodd" clip-rule="evenodd" d="M11.9992 14.85C8.74917 14.85 6.99917 11.6754 6.99917 8.12497C6.99917 4.64997 8.99917 2.49997 11.9992 2.49997C14.9992 2.49997 16.9992 4.64997 16.9992 8.12497C16.9992 11.6754 15.2492 14.85 11.9992 14.85ZM11.9992 12.85C13.7387 12.85 14.9992 11.0013 14.9992 8.12497C14.9992 5.74616 13.8772 4.49997 11.9992 4.49997C10.1212 4.49997 8.99917 5.74616 8.99917 8.12497C8.99917 11.0013 10.2598 12.85 11.9992 12.85ZM4.93928 22.4982C5.49057 22.5313 5.9643 22.1112 5.99738 21.5599C6.1127 19.6378 8.04046 18.5 12.003 18.5C15.9636 18.5 17.886 19.6363 18.0027 21.5606C18.0361 22.1118 18.5102 22.5316 19.0614 22.4982C19.6127 22.4647 20.0325 21.9907 19.999 21.4394C19.8039 18.2224 16.8899 16.5 12.003 16.5C7.11399 16.5 4.19396 18.2235 4.00097 21.4401C3.96789 21.9914 4.38799 22.4651 4.93928 22.4982Z" fill="#73AAFC"/>
</svg>
