<svg width="24" height="25" viewBox="0 0 24 25" fill="none" xmlns="http://www.w3.org/2000/svg">
<path fill-rule="evenodd" clip-rule="evenodd" d="M23 8.5C23 9.6 22.1 10.5 21 10.5C20.82 10.5 20.65 10.48 20.49 10.43L16.93 13.98C16.98 14.14 17 14.32 17 14.5C17 15.6 16.1 16.5 15 16.5C13.9 16.5 13 15.6 13 14.5C13 14.32 13.02 14.14 13.07 13.98L10.52 11.43C10.36 11.48 10.18 11.5 10 11.5C9.82 11.5 9.64 11.48 9.48 11.43L4.93 15.99C4.98 16.15 5 16.32 5 16.5C5 17.6 4.1 18.5 3 18.5C1.9 18.5 1 17.6 1 16.5C1 15.4 1.9 14.5 3 14.5C3.18 14.5 3.35 14.52 3.51 14.57L8.07 10.02C8.02 9.86 8 9.68 8 9.5C8 8.4 8.9 7.5 10 7.5C11.1 7.5 12 8.4 12 9.5C12 9.68 11.98 9.86 11.93 10.02L14.48 12.57C14.64 12.52 14.82 12.5 15 12.5C15.18 12.5 15.36 12.52 15.52 12.57L19.07 9.01C19.02 8.85 19 8.68 19 8.5C19 7.4 19.9 6.5 21 6.5C22.1 6.5 23 7.4 23 8.5Z" fill="#777A8F"/>
</svg>
