<svg width="24" height="25" viewBox="0 0 24 25" fill="none" xmlns="http://www.w3.org/2000/svg">
<path fill-rule="evenodd" clip-rule="evenodd" d="M12 2.75C10.0716 2.75 8.18657 3.32183 6.58319 4.39317C4.97981 5.46451 3.73013 6.98726 2.99218 8.76883C2.25422 10.5504 2.06114 12.5108 2.43735 14.4021C2.81355 16.2934 3.74215 18.0307 5.10571 19.3943C6.46927 20.7578 8.20656 21.6864 10.0979 22.0627C11.9892 22.4389 13.9496 22.2458 15.7312 21.5078C17.5127 20.7699 19.0355 19.5202 20.1068 17.9168C21.1782 16.3134 21.75 14.4284 21.75 12.5C21.75 11.2196 21.4978 9.95176 21.0078 8.76883C20.5178 7.58591 19.7997 6.51108 18.8943 5.60571C17.9889 4.70034 16.9141 3.98216 15.7312 3.49217C14.5482 3.00219 13.2804 2.75 12 2.75ZM10.3905 4.40852C11.9909 4.09019 13.6496 4.25357 15.1571 4.87799C16.6646 5.50242 17.9531 6.55984 18.8596 7.91654C19.7661 9.27325 20.25 10.8683 20.25 12.5C20.25 14.688 19.3808 16.7865 17.8336 18.3336C16.2865 19.8808 14.188 20.75 12 20.75C10.3683 20.75 8.77325 20.2661 7.41655 19.3596C6.05984 18.4531 5.00242 17.1646 4.378 15.6571C3.75357 14.1496 3.5902 12.4908 3.90853 10.8905C4.22685 9.29016 5.01259 7.82015 6.16637 6.66637C7.32015 5.51258 8.79016 4.72685 10.3905 4.40852ZM9.21191 16.8C9.21191 16.9657 9.34623 17.1 9.51191 17.1H10.3417C10.5074 17.1 10.6417 16.9657 10.6417 16.8V15.4391C10.6417 15.2735 10.776 15.1391 10.9417 15.1391H12.6294C12.795 15.1391 12.9294 15.0048 12.9294 14.8391V14.4451C12.9294 14.2794 12.795 14.1451 12.6294 14.1451H10.9417C10.776 14.1451 10.6417 14.0108 10.6417 13.8451V13.3421C10.6417 13.1764 10.776 13.0421 10.9417 13.0421H12.4936C13.4559 13.0421 14.2139 12.797 14.7677 12.3068C15.3305 11.8075 15.6119 11.1448 15.6119 10.3187C15.6119 9.45631 15.335 8.77092 14.7813 8.26255C14.2275 7.75418 13.4332 7.5 12.3983 7.5H9.51191C9.34623 7.5 9.21191 7.63432 9.21191 7.8V11.7481C9.21191 11.9138 9.0776 12.0481 8.91191 12.0481H8.3C8.13431 12.0481 8 12.1824 8 12.3481V12.7421C8 12.9078 8.13431 13.0421 8.3 13.0421H8.91191C9.0776 13.0421 9.21191 13.1764 9.21191 13.3421V13.8451C9.21191 14.0108 9.0776 14.1451 8.91191 14.1451H8.3C8.13431 14.1451 8 14.2794 8 14.4451V14.8391C8 15.0048 8.13431 15.1391 8.3 15.1391H8.91191C9.0776 15.1391 9.21191 15.2735 9.21191 15.4391V16.8ZM10.9145 12.0481C10.7488 12.0481 10.6145 11.9138 10.6145 11.7481V8.9983C10.6145 8.83261 10.7488 8.6983 10.9145 8.6983H12.2485C13.583 8.6983 14.2502 9.26567 14.2502 10.4004C14.2502 10.9723 14.0777 11.3899 13.7328 11.6532C13.3969 11.9165 12.9067 12.0481 12.2621 12.0481H10.9145Z" fill="#777A8F"/>
</svg>
