<svg width="24" height="25" viewBox="0 0 24 25" fill="none" xmlns="http://www.w3.org/2000/svg">
<path fill-rule="evenodd" clip-rule="evenodd" d="M6.58319 4.39317C8.18657 3.32183 10.0716 2.75 12 2.75C13.2804 2.75 14.5482 3.00219 15.7312 3.49217C16.9141 3.98216 17.9889 4.70034 18.8943 5.60571C19.7997 6.51108 20.5178 7.58591 21.0078 8.76883C21.4978 9.95176 21.75 11.2196 21.75 12.5C21.75 14.4284 21.1782 16.3134 20.1068 17.9168C19.0355 19.5202 17.5127 20.7699 15.7312 21.5078C13.9496 22.2458 11.9892 22.4389 10.0979 22.0627C8.20656 21.6864 6.46927 20.7578 5.10571 19.3943C3.74215 18.0307 2.81355 16.2934 2.43735 14.4021C2.06114 12.5108 2.25422 10.5504 2.99218 8.76883C3.73013 6.98726 4.97981 5.46451 6.58319 4.39317ZM15.1571 4.87799C13.6496 4.25357 11.9909 4.09019 10.3905 4.40852C8.79016 4.72685 7.32015 5.51258 6.16637 6.66637C5.01259 7.82015 4.22685 9.29016 3.90853 10.8905C3.5902 12.4908 3.75357 14.1496 4.378 15.6571C5.00242 17.1646 6.05984 18.4531 7.41655 19.3596C8.77325 20.2661 10.3683 20.75 12 20.75C14.188 20.75 16.2865 19.8808 17.8336 18.3336C19.3808 16.7865 20.25 14.688 20.25 12.5C20.25 10.8683 19.7661 9.27325 18.8596 7.91654C17.9531 6.55984 16.6646 5.50242 15.1571 4.87799ZM10.6238 8.11799C11.042 7.87675 11.5162 7.74984 11.999 7.75C12.6436 7.75521 13.2658 7.9867 13.7571 8.40405C14.2487 8.82159 14.5778 9.3986 14.687 10.0342C14.7962 10.6698 14.6786 11.3236 14.3546 11.8813C14.0306 12.4389 13.521 12.865 12.9147 13.085L12.75 13.1448V13.5C12.75 13.6989 12.671 13.8897 12.5303 14.0303C12.3897 14.171 12.1989 14.25 12 14.25C11.8011 14.25 11.6103 14.171 11.4697 14.0303C11.329 13.8897 11.25 13.6989 11.25 13.5V12.5C11.25 12.3011 11.329 12.1103 11.4697 11.9697C11.6103 11.829 11.8011 11.75 12 11.75C12.3315 11.75 12.6495 11.6183 12.8839 11.3839C13.1183 11.1495 13.25 10.8315 13.25 10.5C13.25 10.1685 13.1183 9.85053 12.8839 9.61611C12.6496 9.38181 12.3318 9.25013 12.0005 9.25C11.7804 9.24921 11.564 9.30655 11.3732 9.41622C11.1822 9.52598 11.0234 9.68414 10.9133 9.87489L10.9085 9.88412C10.8616 9.97374 10.7971 10.053 10.7188 10.117C10.6405 10.181 10.55 10.2286 10.4529 10.2568C10.3557 10.285 10.2539 10.2932 10.1535 10.281C10.0531 10.2688 9.95616 10.2364 9.86858 10.1858C9.78101 10.1352 9.70458 10.0674 9.64389 9.98644C9.58321 9.90552 9.53952 9.81315 9.51545 9.71491C9.49139 9.61666 9.48745 9.51456 9.50386 9.41475C9.52028 9.31494 9.55691 9.2196 9.61117 9.13424L9.61651 9.125C9.85802 8.70669 10.2055 8.35937 10.6238 8.11799ZM11.7116 15.8019C11.803 15.7638 11.901 15.7442 12 15.7442C12.099 15.7442 12.197 15.7638 12.2884 15.8019C12.3798 15.84 12.4628 15.8958 12.5325 15.9661C12.602 16.0361 12.657 16.1192 12.6943 16.2106C12.7317 16.302 12.7503 16.3998 12.7498 16.4985L12.7502 16.5092C12.7538 16.6062 12.7382 16.7037 12.7049 16.7949C12.6725 16.8845 12.6207 16.9659 12.5533 17.0333C12.4859 17.1007 12.4045 17.1525 12.3149 17.1849L12.3068 17.1878L12.2989 17.1913C12.2111 17.2302 12.1161 17.2502 12.02 17.2502C11.9239 17.2502 11.8289 17.2302 11.7411 17.1913L11.7332 17.1878L11.7251 17.1849C11.6355 17.1525 11.5541 17.1007 11.4867 17.0333C11.4193 16.9659 11.3675 16.8845 11.3351 16.7949L11.3311 16.7839L11.3261 16.7733C11.2868 16.69 11.2675 16.5986 11.2699 16.5064L11.2702 16.494L11.2693 16.4816C11.2656 16.4317 11.2653 16.3816 11.2684 16.3317C11.2754 16.2975 11.287 16.2644 11.3028 16.2333L11.3108 16.2177L11.3164 16.2012C11.3309 16.1591 11.3508 16.1191 11.3757 16.0821C11.4053 16.0403 11.4372 16.0002 11.4714 15.9621C11.5403 15.8937 11.6219 15.8392 11.7116 15.8019Z" fill="#777A8F"/>
</svg>
