<svg width="25" height="24" viewBox="0 0 25 24" fill="none" xmlns="http://www.w3.org/2000/svg">
<g clip-path="url(#clip0)">
<path fill-rule="evenodd" clip-rule="evenodd" d="M9.94987 14.5501L3.48359 11.2628C2.89281 10.9624 2.65736 10.24 2.9577 9.64926C3.09667 9.3759 3.33501 9.16612 3.6238 9.06298L20.0117 3.21014C20.5319 3.02439 21.1041 3.29544 21.2898 3.81555C21.3675 4.03305 21.3675 4.27072 21.2898 4.48822L15.437 20.8762C15.2141 21.5003 14.5274 21.8256 13.9033 21.6027C13.6145 21.4995 13.3762 21.2897 13.2372 21.0164L9.94987 14.5501ZM18.6963 5.80367L6.04576 10.3217L10.4996 12.586L12.7924 10.2908C13.1827 9.90013 13.8159 9.89981 14.2066 10.2901C14.5973 10.6805 14.5977 11.3136 14.2073 11.7044L11.9139 14.0001L14.1782 18.4542L18.6963 5.80367Z" fill="#C1C5D6"/>
</g>
<defs>
<clipPath id="clip0">
<rect width="24" height="24" fill="white" transform="translate(0.5)"/>
</clipPath>
</defs>
</svg>
