<svg width="24" height="24" viewBox="0 0 24 24" fill="none" xmlns="http://www.w3.org/2000/svg">
<path d="M13.1161 2C13.8251 1.99971 14.5041 2.28061 14.9983 2.77871C15.4925 3.27681 15.7599 3.94968 15.7383 4.57766L15.7468 4.72535C15.7641 4.87079 15.8124 5.01116 15.8908 5.14054C16.0435 5.39567 16.2935 5.58081 16.5857 5.65514C16.8779 5.72947 17.1882 5.68688 17.4821 5.51839L17.646 5.4355C18.8759 4.86897 20.3511 5.31918 21.0333 6.47928L21.6465 7.52174C21.6627 7.54922 21.6769 7.57762 21.6892 7.60674L21.7461 7.71842C22.2945 8.86519 21.9043 10.2293 20.8624 10.9223L20.6051 11.0807C20.4706 11.1726 20.3585 11.2926 20.2741 11.4368C20.1218 11.6929 20.08 11.998 20.158 12.2844C20.236 12.5708 20.4272 12.8149 20.7174 12.9793L20.8843 13.0841C21.3887 13.4297 21.753 13.9391 21.9119 14.523C22.0912 15.1817 21.995 15.8833 21.6399 16.4804L20.9803 17.557L20.8808 17.7089C20.1058 18.8008 18.6011 19.1344 17.4527 18.485L17.3166 18.4163C17.1746 18.3541 17.0214 18.3199 16.882 18.316C16.5786 18.3146 16.2872 18.432 16.0727 18.6422C15.8582 18.8524 15.7383 19.1379 15.7391 19.4698L15.731 19.6414C15.62 20.9703 14.4845 22 13.1164 22H11.8811C10.4322 22 9.25765 20.8493 9.25912 19.4753L9.25063 19.3277C9.23337 19.1822 9.18504 19.0418 9.1027 18.9057C8.95335 18.65 8.70591 18.4633 8.41538 18.3871C8.12484 18.3109 7.81529 18.3516 7.51565 18.5213L7.33762 18.6084C6.7746 18.8565 6.13953 18.9023 5.54445 18.7366C4.87306 18.5497 4.30539 18.1083 3.97412 17.5224L3.33679 16.4442L3.25197 16.2844C2.67157 15.0841 3.12651 13.6412 4.28115 12.9875L4.38645 12.9228C4.69491 12.7137 4.87987 12.3688 4.87987 12C4.87987 11.599 4.66149 11.2284 4.27948 11.0115L4.12449 10.9141C3.01001 10.1548 2.66949 8.68049 3.35989 7.50696L4.00918 6.46166C4.73128 5.23376 6.33155 4.81017 7.56235 5.50171L7.69559 5.5713C7.83141 5.63238 7.97895 5.6648 8.12101 5.66628C8.74742 5.66634 9.25775 5.17352 9.26724 4.54181L9.27575 4.3478C9.32704 3.74716 9.59307 3.1827 10.028 2.75457C10.5186 2.27155 11.1855 2 11.8811 2H13.1161ZM13.1164 3.44774H11.8811C11.5786 3.44774 11.2887 3.56581 11.0753 3.77582C10.8863 3.96196 10.7706 4.20741 10.7503 4.43661L10.7368 4.7415C10.6334 6.07087 9.49969 7.11416 8.11326 7.11398C7.75588 7.11034 7.40355 7.03293 7.04427 6.87026L6.8519 6.77085C6.3038 6.46315 5.6049 6.64815 5.28057 7.19925L4.63128 8.24455C4.33377 8.75044 4.48256 9.39466 4.94324 9.70925L5.20395 9.871C5.92196 10.3467 6.35754 11.1429 6.35754 12C6.35754 12.8446 5.93413 13.634 5.20219 14.1296L5.04639 14.2256C4.53354 14.5163 4.33562 15.144 4.57398 15.6383L4.63027 15.7449L5.25952 16.8084C5.40728 17.0696 5.6552 17.2624 5.94842 17.344C6.20831 17.4164 6.48569 17.3964 6.70208 17.3018L6.8108 17.2497C7.41096 16.9066 8.12614 16.8126 8.79737 16.9886C9.46861 17.1645 10.0403 17.5959 10.3794 18.1768C10.5618 18.478 10.6772 18.8132 10.7219 19.1985L10.742 19.552C10.8043 20.1145 11.2905 20.5523 11.8811 20.5523H13.1164C13.7137 20.5523 14.2099 20.1023 14.2565 19.5511L14.2621 19.4421C14.2588 18.7585 14.5345 18.1019 15.0279 17.6185C15.5212 17.1351 16.1914 16.865 16.9053 16.8686C17.2556 16.8778 17.6004 16.9547 17.9528 17.11L18.2687 17.2682C18.7647 17.4814 19.3529 17.3258 19.6511 16.9067L19.7236 16.7957L20.368 15.7436C20.5203 15.4875 20.5621 15.1824 20.4841 14.896C20.415 14.6422 20.2566 14.4207 20.0645 14.2882L19.7922 14.1195C19.2716 13.7748 18.8932 13.2563 18.7302 12.6574C18.5509 11.9987 18.6471 11.2971 18.9946 10.7126C19.1849 10.3872 19.4464 10.1073 19.7873 9.87532L19.948 9.77613C20.4601 9.4827 20.6578 8.85504 20.4212 8.35884L20.3505 8.22529L20.3378 8.19726L19.753 7.20208C19.4764 6.73175 18.9008 6.52853 18.4125 6.6891L18.3015 6.73265L18.1983 6.78415C17.6001 7.12941 16.8863 7.22736 16.2143 7.05641C15.5423 6.88546 14.9673 6.45965 14.6181 5.87616C14.4357 5.57504 14.3202 5.23984 14.2756 4.85454L14.2624 4.60249C14.2713 4.29923 14.1546 4.00536 13.9387 3.78783C13.7229 3.57029 13.4264 3.44774 13.1164 3.44774ZM12.5032 8.73182C14.3455 8.73182 15.839 10.195 15.839 12C15.839 13.805 14.3455 15.2682 12.5032 15.2682C10.661 15.2682 9.16748 13.805 9.16748 12C9.16748 10.195 10.661 8.73182 12.5032 8.73182ZM12.5032 10.1796C11.477 10.1796 10.6452 10.9946 10.6452 12C10.6452 13.0054 11.477 13.8204 12.5032 13.8204C13.5294 13.8204 14.3613 13.0054 14.3613 12C14.3613 10.9946 13.5294 10.1796 12.5032 10.1796Z" fill="#C1C5D6"/>
</svg>
