<svg width="24" height="24" viewBox="0 0 24 24" fill="none" xmlns="http://www.w3.org/2000/svg">
<path fill-rule="evenodd" clip-rule="evenodd" d="M8 7C8 5.34314 9.34315 4 11 4H13C14.6569 4 16 5.34314 16 7H18C18.5523 7 19 7.44771 19 8C19 8.55228 18.5523 9 18 9H17.3462L16.6065 18.6151C16.5464 19.3966 15.8948 20 15.111 20H8.88905C8.10524 20 7.45358 19.3966 7.39347 18.6151L6.65385 9H6C5.44772 9 5 8.55228 5 8C5 7.44771 5.44772 7 6 7H8ZM15.3402 9H8.65975L9.35206 18H14.6479L15.3402 9ZM11 6C10.4477 6 10 6.44771 10 7H14C14 6.44771 13.5523 6 13 6H11Z" fill="#73AAFC"/>
</svg>