<svg width="18" height="18" viewBox="0 0 18 18" fill="none" xmlns="http://www.w3.org/2000/svg">
<path fill-rule="evenodd" clip-rule="evenodd" d="M6.5 2C5.67157 2 5 2.67157 5 3.5C5 4.32842 5.67157 5 6.5 5C7.32843 5 8 4.32842 8 3.5C8 2.67157 7.32843 2 6.5 2ZM6.5 7.5C5.67157 7.5 5 8.17157 5 9C5 9.82842 5.67157 10.5 6.5 10.5C7.32843 10.5 8 9.82842 8 9C8 8.17157 7.32843 7.5 6.5 7.5ZM5 14.4999C5 13.6715 5.67157 12.9999 6.5 12.9999C7.32843 12.9999 8 13.6715 8 14.4999C8 15.3284 7.32843 15.9999 6.5 15.9999C5.67157 15.9999 5 15.3284 5 14.4999ZM11.5 2C10.6716 2 10 2.67157 10 3.5C10 4.32842 10.6716 5 11.5 5C12.3284 5 13 4.32842 13 3.5C13 2.67157 12.3284 2 11.5 2ZM11.5 7.5C10.6716 7.5 10 8.17157 10 9C10 9.82842 10.6716 10.5 11.5 10.5C12.3284 10.5 13 9.82842 13 9C13 8.17157 12.3284 7.5 11.5 7.5ZM10 14.4999C10 13.6715 10.6716 12.9999 11.5 12.9999C12.3284 12.9999 13 13.6715 13 14.4999C13 15.3284 12.3284 15.9999 11.5 15.9999C10.6716 15.9999 10 15.3284 10 14.4999Z" fill="#C1C5D6"/>
</svg>
