<svg width="32" height="32" viewBox="0 0 32 32" fill="none" xmlns="http://www.w3.org/2000/svg">
<path fill-rule="evenodd" clip-rule="evenodd" d="M16.2004 19.7599C11.0004 19.7599 8.20042 14.6806 8.20042 8.99997C8.20042 3.43999 11.4004 0 16.2004 0C21.0004 0 24.2004 3.43999 24.2004 8.99997C24.2004 14.6806 21.4004 19.7599 16.2004 19.7599ZM16.2004 16.5599C18.9836 16.5599 21.0004 13.602 21.0004 8.99997C21.0004 5.19389 19.2052 3.19999 16.2004 3.19999C13.1956 3.19999 11.4004 5.19389 11.4004 8.99997C11.4004 13.602 13.4174 16.5599 16.2004 16.5599ZM4.90461 31.997C5.78667 32.05 6.54463 31.3778 6.59756 30.4957C6.78207 27.4204 9.86648 25.5999 16.2065 25.5999C22.5434 25.5999 25.6192 27.418 25.806 30.4969C25.8594 31.3788 26.618 32.0505 27.4999 31.997C28.382 31.9434 29.0536 31.185 29 30.3029C28.6879 25.1558 24.0255 22.3999 16.2065 22.3999C8.38413 22.3999 3.7121 25.1575 3.40331 30.3041C3.35039 31.1861 4.02254 31.9441 4.90461 31.997Z" fill="#73AAFC"/>
</svg>
