<svg width="32" height="32" viewBox="0 0 32 32" fill="none" xmlns="http://www.w3.org/2000/svg">
<g clip-path="url(#clip0)">
<path fill-rule="evenodd" clip-rule="evenodd" d="M0.200195 7.6C0.200195 6.71635 0.916547 6 1.8002 6H30.6002C31.4839 6 32.2002 6.71635 32.2002 7.6C32.2002 8.48365 31.4839 9.2 30.6002 9.2H1.8002C0.916547 9.2 0.200195 8.48365 0.200195 7.6ZM3.4002 15.6C3.4002 14.7163 4.11655 14 5.0002 14H27.4002C28.2839 14 29.0002 14.7163 29.0002 15.6C29.0002 16.4837 28.2839 17.2 27.4002 17.2H5.0002C4.11655 17.2 3.4002 16.4837 3.4002 15.6ZM8.2002 22C7.31655 22 6.6002 22.7163 6.6002 23.6C6.6002 24.4837 7.31655 25.2 8.2002 25.2H24.2002C25.0839 25.2 25.8002 24.4837 25.8002 23.6C25.8002 22.7163 25.0839 22 24.2002 22H8.2002Z" fill="#73AAFC"/>
</g>
<defs>
<clipPath id="clip0">
<rect width="32" height="32" fill="white"/>
</clipPath>
</defs>
</svg>
