<svg width="32" height="32" viewBox="0 0 32 32" fill="none" xmlns="http://www.w3.org/2000/svg">
<g clip-path="url(#clip0)">
<path d="M18.209 20.0089L18.3867 20.1078L18.5197 19.954L19.8875 18.3732C21.3505 16.6822 23.8489 16.3572 25.6959 17.6175L29.6302 20.3022C31.6374 21.6721 32.1544 24.4093 30.7853 26.4167C30.7762 26.4297 30.7695 26.4394 30.7641 26.4473C30.7559 26.459 30.7507 26.4666 30.7448 26.4749L30.7437 26.4764C30.7344 26.4897 30.7254 26.502 30.7027 26.5335C30.3568 27.0071 29.9979 27.4917 29.626 27.9878C27.3026 31.0856 24.0535 32.244 20.2946 31.5594C16.5173 30.8714 12.2139 28.3175 7.84721 23.9508C3.4808 19.5844 0.927676 15.2818 0.240423 11.5054C-0.443477 7.74732 0.715626 4.4989 3.81362 2.17541C4.30781 1.80477 4.79023 1.44692 5.26116 1.10165C7.2209 -0.33479 9.97397 0.0889249 11.4111 2.04811C11.4178 2.0574 11.4234 2.06519 11.4283 2.07194C11.4402 2.0885 11.4476 2.09874 11.4551 2.1093L11.4552 2.1094C11.4653 2.12364 11.4755 2.13831 11.4975 2.17029C11.4975 2.17042 11.4976 2.17056 11.4977 2.17069L14.1834 6.1051C15.444 7.95201 15.1192 10.4507 13.4281 11.9139L11.8467 13.282L11.693 13.4151L11.7919 13.5927C12.3884 14.6644 13.3355 15.8628 14.6353 17.1627C15.9363 18.4636 17.1359 19.4113 18.209 20.0089ZM5.54294 4.48118L5.6814 4.6658L5.54293 4.48119C3.57623 5.95622 2.57006 8.25162 3.11846 11.2187C3.6634 14.1671 5.73892 17.7665 9.88522 21.9128C14.0315 26.0591 17.6318 28.1355 20.5809 28.6812C23.5488 29.2305 25.8451 28.2252 27.3202 26.2584C27.685 25.7719 28.0369 25.2967 28.3758 24.8328L28.3765 24.8318C28.3855 24.8195 28.3941 24.8073 28.4025 24.7952L28.4039 24.7931C28.8766 24.1004 28.6983 23.1556 28.0055 22.6829L24.0712 19.9983C23.434 19.5634 22.572 19.6756 22.0672 20.259L22.0672 20.259L20.2671 22.3394L20.2671 22.3394C19.6025 23.1077 18.5105 23.3452 17.5867 22.9228C16.0387 22.2148 14.3754 20.9787 12.5973 19.2007C10.8199 17.4233 9.58484 15.7612 8.87782 14.2149L8.65774 14.3155L8.87782 14.2149C8.4554 13.2911 8.69306 12.1993 9.46124 11.5347L11.5423 9.73423L11.5423 9.73422C12.1257 9.22942 12.2378 8.36728 11.8028 7.73002C11.8028 7.73001 11.8028 7.73 11.8028 7.73L9.11675 3.79485L9.11667 3.79473C9.10722 3.78091 9.09741 3.76701 9.08722 3.75313C8.59145 3.07689 7.64135 2.93057 6.9651 3.42634C6.50286 3.76514 6.02881 4.11678 5.54294 4.48118Z" fill="#73AAFC" stroke="#F4F6FA" stroke-width="0.5"/>
</g>
<defs>
<clipPath id="clip0">
<rect width="32" height="32" fill="white"/>
</clipPath>
</defs>
</svg>
