<svg width="32" height="32" viewBox="0 0 32 32" fill="none" xmlns="http://www.w3.org/2000/svg">
<path fill-rule="evenodd" clip-rule="evenodd" d="M32 9.90909C32 11.5091 30.6909 12.8182 29.0909 12.8182C28.8291 12.8182 28.5818 12.7891 28.3491 12.7164L23.1709 17.88C23.2436 18.1127 23.2727 18.3745 23.2727 18.6364C23.2727 20.2364 21.9636 21.5455 20.3636 21.5455C18.7636 21.5455 17.4545 20.2364 17.4545 18.6364C17.4545 18.3745 17.4836 18.1127 17.5564 17.88L13.8473 14.1709C13.6145 14.2436 13.3527 14.2727 13.0909 14.2727C12.8291 14.2727 12.5673 14.2436 12.3345 14.1709L5.71636 20.8036C5.78909 21.0364 5.81818 21.2836 5.81818 21.5455C5.81818 23.1455 4.50909 24.4545 2.90909 24.4545C1.30909 24.4545 0 23.1455 0 21.5455C0 19.9455 1.30909 18.6364 2.90909 18.6364C3.17091 18.6364 3.41818 18.6655 3.65091 18.7382L10.2836 12.12C10.2109 11.8873 10.1818 11.6255 10.1818 11.3636C10.1818 9.76364 11.4909 8.45455 13.0909 8.45455C14.6909 8.45455 16 9.76364 16 11.3636C16 11.6255 15.9709 11.8873 15.8982 12.12L19.6073 15.8291C19.84 15.7564 20.1018 15.7273 20.3636 15.7273C20.6255 15.7273 20.8873 15.7564 21.12 15.8291L26.2836 10.6509C26.2109 10.4182 26.1818 10.1709 26.1818 9.90909C26.1818 8.30909 27.4909 7 29.0909 7C30.6909 7 32 8.30909 32 9.90909Z" fill="#73AAFC"/>
</svg>
