<svg width="24" height="24" viewBox="0 0 24 24" fill="none" xmlns="http://www.w3.org/2000/svg">
<g opacity="0.65">
<path fill-rule="evenodd" clip-rule="evenodd" d="M6.50118 8C7.05347 8 7.50118 7.55228 7.50118 7V5.92291C7.50118 5.46427 7.52284 5.35209 7.58334 5.23896C7.62087 5.16879 7.66997 5.11969 7.74014 5.08216C7.85327 5.02166 7.96545 5 8.42409 5H18.5783C19.0369 5 19.1491 5.02166 19.2622 5.08216C19.3324 5.11969 19.3815 5.16879 19.419 5.23896C19.4795 5.35209 19.5012 5.46427 19.5012 5.92291V18.0771C19.5012 18.5357 19.4795 18.6479 19.419 18.761C19.3815 18.8312 19.3324 18.8803 19.2622 18.9178C19.1491 18.9783 19.0369 19 18.5783 19H8.42409C7.96545 19 7.85327 18.9783 7.74014 18.9178C7.66997 18.8803 7.62087 18.8312 7.58334 18.761C7.52284 18.6479 7.50118 18.5357 7.50118 18.0771V17C7.50118 16.4477 7.05347 16 6.50118 16C5.94889 16 5.50118 16.4477 5.50118 17V18.0771C5.50118 18.8377 5.58308 19.2618 5.81972 19.7042C6.04365 20.1229 6.37823 20.4575 6.79695 20.6815C7.23943 20.9181 7.66352 21 8.42409 21H18.5783C19.3389 21 19.763 20.9181 20.2054 20.6815C20.6241 20.4575 20.9587 20.1229 21.1827 19.7042C21.4193 19.2618 21.5012 18.8377 21.5012 18.0771V5.92291C21.5012 5.16234 21.4193 4.73825 21.1827 4.29577C20.9587 3.87705 20.6241 3.54247 20.2054 3.31854C19.763 3.0819 19.3389 3 18.5783 3H8.42409C7.66352 3 7.23943 3.0819 6.79695 3.31854C6.37823 3.54247 6.04365 3.87705 5.81972 4.29577C5.58308 4.73825 5.50118 5.16234 5.50118 5.92291V7C5.50118 7.55228 5.94889 8 6.50118 8ZM16.0946 10.9428C16.6779 11.5282 16.6777 12.4734 16.0943 13.0587C15.0152 14.1412 13.4616 15.6995 13.2111 15.95C12.8211 16.34 12.1811 16.34 11.7911 15.95C11.4011 15.56 11.4011 14.93 11.7911 14.54C12.3017 14.0294 12.8679 13.5775 13.4802 13.1946L13.8672 12.9525L13.6601 12.7469C12.9264 12.9155 12.1751 13.0008 11.4207 13.0008H3.49878C2.9465 13.0008 2.49878 12.5531 2.49878 12.0008C2.49878 11.4486 2.9465 11.0008 3.49878 11.0008H11.4207C12.1751 11.0008 12.9264 11.0862 13.6601 11.2548L13.8672 11.0492L13.4812 10.8077C12.8683 10.4244 12.3022 9.97114 11.7911 9.46C11.4011 9.07 11.4011 8.44 11.7911 8.05C12.1811 7.66 12.8211 7.66 13.2111 8.05C13.4616 8.30055 15.0154 9.85974 16.0946 10.9428Z" fill="#777A8F"/>
</g>
</svg>
