<svg width="18" height="18" viewBox="0 0 18 18" fill="none" xmlns="http://www.w3.org/2000/svg">
<path fill-rule="evenodd" clip-rule="evenodd" d="M5 3C5 3.55228 5.44772 4 6 4H13.5C13.7761 4 14 4.22385 14 4.5V11.9972C14 12.5495 14.4477 12.9972 15 12.9972C15.5523 12.9972 16 12.5495 16 11.9972V4.5C16 3.11928 14.8807 2 13.5 2H6C5.44772 2 5 2.44771 5 3ZM3.5 5H11.5C12.3284 5 13 5.67157 13 6.5V14.4999C13 15.3284 12.3284 15.9999 11.5 15.9999H3.5C2.67157 15.9999 2 15.3284 2 14.4999V6.5C2 5.67157 2.67157 5 3.5 5ZM4 7V13.9999H11V7H4Z" fill="#C1C5D6"/>
</svg>
