<svg width="22" height="14" viewBox="0 0 22 14" fill="none" xmlns="http://www.w3.org/2000/svg">
<path d="M6.37879 13.1212C4.71212 13.1212 3.39899 12.5783 2.43939 11.4924C1.4798 10.3813 1 8.90404 1 7.06061C1 5.26768 1.46717 3.81566 2.40152 2.70455C3.36111 1.56818 4.68687 1 6.37879 1C7.16162 1 7.9697 1.21465 8.80303 1.64394C9.66162 2.04798 10.3939 2.79293 11 3.87879C11.6313 2.79293 12.351 2.04798 13.1591 1.64394C13.9924 1.21465 14.8005 1 15.5833 1C17.2753 1 18.601 1.56818 19.5606 2.70455C20.5202 3.81566 21 5.26768 21 7.06061C21 8.90404 20.5076 10.3813 19.5227 11.4924C18.5631 12.5783 17.25 13.1212 15.5833 13.1212C14.8005 13.1212 13.9924 12.9066 13.1591 12.4773C12.351 12.048 11.6313 11.2904 11 10.2045C10.3939 11.2904 9.66162 12.048 8.80303 12.4773C7.9697 12.9066 7.16162 13.1212 6.37879 13.1212ZM6.56818 10.053C7.17424 10.053 7.7803 9.83838 8.38636 9.40909C8.99242 8.9798 9.49747 8.18435 9.90152 7.02273C9.49747 5.86111 8.99242 5.07829 8.38636 4.67425C7.7803 4.27021 7.17424 4.06818 6.56818 4.06818C5.81061 4.06818 5.21717 4.35859 4.78788 4.9394C4.35859 5.5202 4.14394 6.22727 4.14394 7.06061C4.14394 7.89394 4.35859 8.60101 4.78788 9.18182C5.21717 9.76263 5.81061 10.053 6.56818 10.053ZM15.4318 10.053C16.1641 10.053 16.7449 9.76263 17.1742 9.18182C17.6288 8.57576 17.8561 7.86869 17.8561 7.06061C17.8561 6.22727 17.6288 5.5202 17.1742 4.9394C16.7449 4.35859 16.1641 4.06818 15.4318 4.06818C14.8258 4.06818 14.2197 4.27021 13.6136 4.67425C13.0328 5.07829 12.5278 5.86111 12.0985 7.02273C12.5278 8.18435 13.0328 8.9798 13.6136 9.40909C14.2197 9.83838 14.8258 10.053 15.4318 10.053Z" fill="#777A8F" stroke="white" stroke-width="1.5"/>
</svg>
