<svg width="33" height="32" viewBox="0 0 33 32" fill="none" xmlns="http://www.w3.org/2000/svg">
<path fill-rule="evenodd" clip-rule="evenodd" d="M27.25 12C27.25 13.1 26.35 14 25.25 14C25.07 14 24.9 13.98 24.74 13.93L21.18 17.48C21.23 17.64 21.25 17.82 21.25 18C21.25 19.1 20.35 20 19.25 20C18.15 20 17.25 19.1 17.25 18C17.25 17.82 17.27 17.64 17.32 17.48L14.77 14.93C14.61 14.98 14.43 15 14.25 15C14.07 15 13.89 14.98 13.73 14.93L9.18 19.49C9.23 19.65 9.25 19.82 9.25 20C9.25 21.1 8.35 22 7.25 22C6.15 22 5.25 21.1 5.25 20C5.25 18.9 6.15 18 7.25 18C7.43 18 7.6 18.02 7.76 18.07L12.32 13.52C12.27 13.36 12.25 13.18 12.25 13C12.25 11.9 13.15 11 14.25 11C15.35 11 16.25 11.9 16.25 13C16.25 13.18 16.23 13.36 16.18 13.52L18.73 16.07C18.89 16.02 19.07 16 19.25 16C19.43 16 19.61 16.02 19.77 16.07L23.32 12.51C23.27 12.35 23.25 12.18 23.25 12C23.25 10.9 24.15 10 25.25 10C26.35 10 27.25 10.9 27.25 12Z" fill="#73AAFC"/>
</svg>
