<svg width="33" height="32" viewBox="0 0 33 32" fill="none" xmlns="http://www.w3.org/2000/svg">
<path fill-rule="evenodd" clip-rule="evenodd" d="M16.25 18.35C13 18.35 11.25 15.1754 11.25 11.625C11.25 8.15 13.25 6 16.25 6C19.25 6 21.25 8.15 21.25 11.625C21.25 15.1754 19.5 18.35 16.25 18.35ZM16.25 16.35C17.9895 16.35 19.25 14.5013 19.25 11.625C19.25 9.24619 18.128 8 16.25 8C14.372 8 13.25 9.24619 13.25 11.625C13.25 14.5013 14.5106 16.35 16.25 16.35ZM9.19014 25.9982C9.74143 26.0313 10.2152 25.6112 10.2482 25.0599C10.3636 23.1378 12.2913 22 16.2538 22C20.2144 22 22.1368 23.1363 22.2535 25.0606C22.2869 25.6118 22.761 26.0316 23.3122 25.9982C23.8635 25.9647 24.2833 25.4907 24.2498 24.9394C24.0547 21.7224 21.1407 20 16.2538 20C11.3648 20 8.44482 21.7235 8.25183 24.9401C8.21875 25.4914 8.63885 25.9651 9.19014 25.9982Z" fill="#73AAFC"/>
</svg>
