<svg width="33" height="32" viewBox="0 0 33 32" fill="none" xmlns="http://www.w3.org/2000/svg">
<path fill-rule="evenodd" clip-rule="evenodd" d="M18.3358 18.2871C17.7171 17.9426 17.0186 17.3921 16.2552 16.6287C15.4924 15.8659 14.9423 15.1681 14.5984 14.5503L15.5335 13.7413C16.5903 12.8269 16.7933 11.2654 16.0055 10.1112L14.4171 7.78427C14.404 7.76523 14.3974 7.7557 14.3907 7.74626C14.384 7.73681 14.3772 7.72744 14.3637 7.70869C13.4657 6.48388 11.7449 6.21888 10.52 7.11669C10.2411 7.32119 9.95537 7.53312 9.66274 7.75259C5.9042 10.5715 6.8457 15.6654 12.0321 20.8518C17.2188 26.0385 22.3145 26.9815 25.1333 23.2231C25.3537 22.9292 25.5664 22.642 25.7714 22.3613C25.7843 22.3434 25.7908 22.3345 25.7971 22.3255C25.8035 22.3165 25.8097 22.3074 25.8223 22.2893C26.6784 21.0348 26.3554 19.3238 25.1009 18.4676L22.7744 16.8801C21.6202 16.0925 20.0589 16.2956 19.1446 17.3523L18.3358 18.2871ZM23.5333 22.0231C21.8588 24.2558 18.3303 24.3216 13.4463 19.4376C8.56227 14.5536 8.63004 11.0271 10.8627 9.35259C11.1496 9.13741 11.4295 8.9298 11.7024 8.7298C12.0364 8.4849 12.5058 8.55717 12.7506 8.89121C12.7556 8.89799 12.7605 8.90487 12.7652 8.91182L14.3536 11.2388C14.5685 11.5536 14.5131 11.9794 14.2249 12.2288L12.9943 13.2935C12.4904 13.7295 12.3345 14.4456 12.6116 15.0516C13.0395 15.9875 13.7826 16.9846 14.841 18.0429C15.8997 19.1016 16.8975 19.8453 17.8344 20.2738C18.4404 20.5509 19.1567 20.3951 19.5927 19.8911L20.6571 18.6609C20.9065 18.3727 21.3323 18.3173 21.647 18.5321L23.9735 20.1196C24.3157 20.3531 24.4038 20.8198 24.1703 21.162C24.1657 21.1686 24.1611 21.1751 24.1564 21.1816C23.9564 21.4554 23.7487 21.7359 23.5333 22.0231Z" fill="#73AAFC"/>
</svg>
