<svg width="33" height="32" viewBox="0 0 33 32" fill="none" xmlns="http://www.w3.org/2000/svg">
<path fill-rule="evenodd" clip-rule="evenodd" d="M6 11C6 10.4477 6.44772 10 7 10H25C25.5523 10 26 10.4477 26 11C26 11.5523 25.5523 12 25 12H7C6.44772 12 6 11.5523 6 11ZM8 16C8 15.4477 8.44772 15 9 15H23C23.5523 15 24 15.4477 24 16C24 16.5523 23.5523 17 23 17H9C8.44772 17 8 16.5523 8 16ZM11 20C10.4477 20 10 20.4477 10 21C10 21.5523 10.4477 22 11 22H21C21.5523 22 22 21.5523 22 21C22 20.4477 21.5523 20 21 20H11Z" fill="#73AAFC"/>
</svg>
