<svg width="18" height="18" viewBox="0 0 18 18" fill="none" xmlns="http://www.w3.org/2000/svg">
<path fill-rule="evenodd" clip-rule="evenodd" d="M1 9C1 7.2 3.85714 3 9 3C14.1429 3 17 7.2 17 9C17 10.8 14.1429 15 9 15C3.85714 15 1 10.8 1 9ZM3 9C3 9.3621 3.54631 10.377 4.44084 11.2174C5.63275 12.3371 7.18997 13 9 13C10.81 13 12.3673 12.3371 13.5592 11.2174C14.4537 10.377 15 9.3621 15 9C15 8.6379 14.4537 7.62303 13.5592 6.78263C12.3673 5.66287 10.81 5 9 5C7.18997 5 5.63275 5.66287 4.44084 6.78263C3.54631 7.62303 3 8.6379 3 9ZM11.3 9C11.3 10.2703 10.2703 11.2999 9 11.2999C7.72974 11.2999 6.7 10.2703 6.7 9C6.7 7.72974 7.72974 6.7 9 6.7C10.2703 6.7 11.3 7.72974 11.3 9Z" fill="#C1C5D6"/>
</svg>
